<?xml version="1.0" encoding="UTF-8"?><svg xmlns="http://www.w3.org/2000/svg" xmlns:xlink="http://www.w3.org/1999/xlink" viewBox="0 0 512 512"><defs><style>.ag{fill:#fff;}.ah{fill:url(#y);}.ai{fill:url(#x);}.aj{fill:#e6e7e8;}.ak{fill:#bcbec0;}</style><linearGradient id="x" x1="4744.6102" y1="4590.6606" x2="4745.2769" y2="4590.6606" gradientTransform="translate(-2794249.7448 2704079.0137) scale(588.9603 -588.9603)" gradientUnits="userSpaceOnUse"><stop offset="0" stop-color="#df4097"/><stop offset=".1853" stop-color="#d93d94"/><stop offset=".4187" stop-color="#c9358d"/><stop offset=".6779" stop-color="#b02882"/><stop offset=".9538" stop-color="#8c1672"/><stop offset="1" stop-color="#86136f"/></linearGradient><linearGradient id="y" x1="4744.6102" y1="4590.6626" x2="4745.2769" y2="4590.6626" gradientTransform="translate(-2794249.7448 2704079.0137) scale(588.9603 -588.9603)" gradientUnits="userSpaceOnUse"><stop offset="0" stop-color="#912288"/><stop offset=".2627" stop-color="#8b2185"/><stop offset=".59" stop-color="#7c1e7c"/><stop offset=".9502" stop-color="#63196f"/><stop offset="1" stop-color="#5f196d"/></linearGradient></defs><g id="a"/><g id="b"/><g id="c"/><g id="d"/><g id="e"><g id="f"/><g id="g"/><g id="h"/><g id="i"/><g id="j"/></g><g id="k"/><g id="l"><g id="m"/><g id="n"/><g id="o"/></g><g id="p"/><g id="q"/><g id="r"/><g id="s"><g id="t"/><g id="u"/><g id="v"/><g id="w"><rect class="ag" y="0" width="341.3334" height="512" rx="47.117" ry="47.117"/><rect class="aj" x="0" y="0" width="94.2342" height="512" rx="47.117" ry="47.117"/><g><path class="ak" d="M111.8579,48.1114c6.2815-3.1042,12.5033-5.5202,18.9531-7.9097,2.1055-.7407,4.2114-1.4956,6.3174-2.2002,1.0527-.3169,2.106-.1064,3.1587,.0342,5.6223,.204,16.352,.0117,22.1118,.0758,36.451,.0071,90.0395-.0054,126.3515-.0001,8.4708,2.9759,17.1001,6.1129,25.2705,10-8.1656,3.8847-16.7865,7.0271-25.2704,10-36.2556,.0042-89.9534-.003-126.3517,0-5.744,.0604-16.4473-.125-22.1117,.0755-1.0528,.1403-2.106,.3512-3.1587,.0343-2.106-.7051-4.2119-1.4595-6.3174-2.2002-6.4492-2.39-12.6714-4.8054-18.9531-7.9097h0Z"/><path class="ak" d="M111.8579,107.5079c6.4204-3.1048,12.7825-5.5214,19.3687-7.9097,2.1519-.7407,4.3037-1.4951,6.4561-2.2002,1.0762-.3169,2.1519-.106,3.228,.0347,5.7458,.203,16.7102,.0114,22.5962,.0753,37.2504,.0071,92.0142-.0054,129.1225-.0001,8.6493,2.9745,17.4715,6.1108,25.8247,10-8.3487,3.8864-17.1613,7.03-25.8246,10-37.0507,.0042-91.9262-.003-129.1227,0-5.8698,.0604-16.8072-.125-22.5961,.0755-1.0762,.1408-2.1519,.3512-3.228,.0343-2.1523-.7046-4.3042-1.4595-6.4561-2.2002-6.5862-2.3872-12.9482-4.8049-19.3687-7.9097h0Z"/><path class="ak" d="M111.8579,166.9049c6.4203-3.1048,12.7822-5.5218,19.3687-7.9097,2.1519-.7407,4.3037-1.4956,6.4561-2.2002,1.0762-.3169,2.1519-.1064,3.228,.0342,5.7458,.204,16.7102,.0117,22.5962,.0758,37.2504,.0071,92.0142-.0054,129.1225-.0001,8.6496,2.9738,17.4713,6.1111,25.8247,10-8.3487,3.8861-17.1613,7.0299-25.8246,10-37.0507,.0042-91.9262-.003-129.1227,0-5.8698,.0604-16.8072-.125-22.5961,.0755-1.0762,.1403-2.1519,.3512-3.228,.0343-2.1523-.7051-4.3042-1.4595-6.4561-2.2002-6.5859-2.3883-12.9481-4.8048-19.3687-7.9097h0Z"/><path class="ak" d="M111.8579,226.3014c6.4203-3.1041,12.7823-5.5221,19.3687-7.9092,2.1519-.7412,4.3037-1.4956,6.4561-2.2007,1.0762-.3169,2.1519-.106,3.228,.0347,5.7458,.203,16.7102,.0114,22.5962,.0753,37.2504,.0071,92.0142-.0054,129.1225-.0001,8.6493,2.9744,17.4712,6.1115,25.8247,10-8.3487,3.8866-17.1615,7.0298-25.8246,10.0005-37.0507,.0033-91.9262-.0034-129.1227-.0005-5.8698,.0603-16.8073-.1248-22.5961,.0755-1.0762,.1408-2.1519,.3517-3.228,.0348-2.1523-.7051-4.3042-1.4595-6.4561-2.2007-6.5862-2.3872-12.9482-4.8049-19.3687-7.9097h0Z"/><path class="ak" d="M111.8579,285.6984c6.4204-3.1048,12.7825-5.5214,19.3687-7.9097,2.1519-.7407,4.3037-1.4951,6.4561-2.2002,1.0762-.3169,2.1519-.106,3.228,.0342,5.7458,.204,16.7102,.0117,22.5962,.0758,37.2504,.0071,92.0142-.0054,129.1225-.0001,8.6496,2.9739,17.4713,6.1111,25.8247,10-8.3487,3.8861-17.1613,7.03-25.8246,10-37.0507,.0042-91.9262-.003-129.1227,0-5.8698,.0604-16.8072-.125-22.5961,.0755-1.0762,.1408-2.1519,.3512-3.228,.0343-2.1523-.7046-4.3042-1.4595-6.4561-2.2002-6.5862-2.3879-12.9481-4.8048-19.3687-7.9097h0Z"/><path class="ak" d="M111.8579,345.0953c6.4203-3.1047,12.7822-5.5225,19.3687-7.9097,2.1519-.7407,4.3037-1.4956,6.4561-2.2002,1.0762-.3169,2.1519-.1064,3.228,.0342,5.7458,.204,16.7102,.0117,22.5962,.0758,37.2504,.0071,92.0142-.0054,129.1225-.0001,8.6496,2.9737,17.4713,6.1108,25.8247,10-8.3486,3.8864-17.1616,7.0293-25.8246,10-37.0507,.0042-91.9262-.003-129.1227,0-5.8698,.0602-16.8073-.1245-22.5961,.075-1.0762,.1408-2.1519,.3517-3.228,.0348-2.1523-.7051-4.3042-1.4595-6.4561-2.2002-6.5859-2.3883-12.9481-4.8048-19.3687-7.9097h0Z"/><path class="ak" d="M111.8579,404.4918c6.4204-3.1048,12.7825-5.5214,19.3687-7.9097,2.1519-.7407,4.3037-1.4951,6.4561-2.2002,1.0762-.3169,2.1519-.106,3.228,.0342,5.7458,.204,16.7102,.0117,22.5962,.0758,37.2504,.0071,92.0142-.0054,129.1225-.0001,8.6493,2.9745,17.4715,6.1108,25.8247,10-8.3487,3.8861-17.1613,7.03-25.8246,10-37.0507,.0042-91.9262-.003-129.1227,0-5.8698,.0604-16.8072-.125-22.5961,.0755-1.0762,.1408-2.1519,.3512-3.228,.0343-2.1523-.7046-4.3042-1.4595-6.4561-2.2002-6.5862-2.3879-12.9481-4.8048-19.3687-7.9097h0Z"/><path class="ak" d="M111.8579,463.8888c6.4203-3.105,12.7822-5.5222,19.3687-7.9097,2.1519-.7407,4.3037-1.4956,6.4561-2.2002,1.0762-.3169,2.1519-.1064,3.228,.0342,5.7458,.204,16.7102,.0117,22.5962,.0758,37.2504,.0071,92.0142-.0054,129.1225-.0001,8.6496,2.9737,17.4713,6.1108,25.8247,10-8.3486,3.8864-17.1616,7.0293-25.8246,10-37.0507,.0042-91.9262-.003-129.1227,0-5.8698,.0601-16.8072-.1243-22.5961,.075-1.0762,.1408-2.1519,.3517-3.228,.0348-2.1523-.7051-4.3042-1.4595-6.4561-2.2002-6.5859-2.3883-12.9481-4.8048-19.3687-7.9097h0Z"/></g><g><path class="ai" d="M318.49,212.6607c-43.3359,9.0342-76.1403,43.2135-78.9118,84.7793h51.6699v4.6458c0,5.2637-9.8066,30.9674-42.3226,30.9674h-9.2135l-.0332,96.8167c-.0029,6.9697,5.7135,11.7386,11.7695,11.7386,2.5065,0,5.07-.8161,7.3122-2.6309l32.7477-26.5146,36.97,64.0345c-14.9456,9.6019-25.7474,21.8301-30.5657,35.5024h136.7695l-66.8447-115.7775c-7.1419-12.3711-2.7201-28.1637,9.7695-35.097,30.6159-16.999,49.0605-38.9307,49.0605-62.8734,0-36.8437-139.0328-23.6077-108.1774-85.5914"/><path class="ah" d="M341.3331,210.3153c-.9229,0-1.8434,.014-2.7611,.0361-.2731,.0062-.5446,.0192-.8174,.027-.654,.0205-1.3066,.0436-1.9567,.0758-.2962,.014-.5924,.0335-.8883,.0488-.64,.0374-1.2796,.0771-1.917,.125-.2728,.0192-.5443,.041-.8161,.0632-.6885,.0566-1.376,.1182-2.0609,.1865-.2087,.0205-.417,.0413-.6257,.0632-.8278,.0876-1.6517,.1826-2.4743,.2884-.0605,.0075-.1221,.014-.1839,.0231-2.8193,.3656-5.6012,.8366-8.3405,1.4082h-.0013c-30.8555,61.9837,108.1774,48.7477,108.1774,85.5914,0,23.9427-18.4447,45.8743-49.0605,62.8734-12.4896,6.9333-16.9115,22.7259-9.7695,35.097l66.8447,115.7775h77.318v-17.658c-7.487-9.1732-17.9206-17.2139-30.5104-23.5999-38.3307-19.4476-70.6445-48.8314-93.7968-84.89h0c33.0013-15.3678,55.5921-46.6328,55.5921-82.7028,0-51.2708-45.6452-92.834-101.9518-92.834"/></g></g></g><g id="a`"/><g id="aa"/><g id="ab"/><g id="ac"><g id="ad"/></g><g id="ae"/><g id="af"/></svg>