<?xml version="1.0" encoding="UTF-8"?><svg xmlns="http://www.w3.org/2000/svg" xmlns:xlink="http://www.w3.org/1999/xlink" viewBox="0 0 512 512"><defs><style>.af{fill:url(#y);}.ag{fill:url(#x);}</style><linearGradient id="x" x1="7816.7135" y1="4590.7877" x2="7817.7135" y2="4590.7877" gradientTransform="translate(-4603783.9285 2704079.0137) scale(588.9603 -588.9603)" gradientUnits="userSpaceOnUse"><stop offset="0" stop-color="#df4097"/><stop offset=".1853" stop-color="#d93d94"/><stop offset=".4187" stop-color="#c9358d"/><stop offset=".6779" stop-color="#b02882"/><stop offset=".9538" stop-color="#8c1672"/><stop offset="1" stop-color="#86136f"/></linearGradient><linearGradient id="y" x1="7816.7135" y1="4590.7906" x2="7817.7135" y2="4590.7906" gradientTransform="translate(-4603783.9285 2704079.0137) scale(588.9603 -588.9603)" gradientUnits="userSpaceOnUse"><stop offset="0" stop-color="#912288"/><stop offset=".2627" stop-color="#8b2185"/><stop offset=".59" stop-color="#7c1e7c"/><stop offset=".9502" stop-color="#63196f"/><stop offset="1" stop-color="#5f196d"/></linearGradient></defs><g id="a"/><g id="b"/><g id="c"/><g id="d"/><g id="e"><g id="f"/><g id="g"/><g id="h"/><g id="i"/><g id="j"/></g><g id="k"/><g id="l"><g id="m"/><g id="n"/><g id="o"/></g><g id="p"/><g id="q"/><g id="r"/><g id="s"><g id="t"/><g id="u"/><g id="v"/></g><g id="w"><g><path class="ag" d="M221.735,62.9918c-65.0039,13.5513-114.2104,64.8203-118.3677,127.1689h77.5049v6.9688c0,7.8955-14.71,46.4512-63.4839,46.4512h-13.8203l-.0498,145.2251c-.0044,10.4546,8.5703,17.6079,17.6543,17.6079,3.7598,0,7.605-1.2241,10.9683-3.9463l49.1216-39.772,55.4551,96.0518c-22.4185,14.4028-38.6211,32.7451-45.8486,53.2537h205.1543l-100.2671-173.6663c-10.7129-18.5566-4.0801-42.2456,14.6543-52.6455,45.9238-25.4985,73.5908-58.396,73.5908-94.3101,0-55.2656-208.5493-35.4116-162.2661-128.3872"/><path class="af" d="M255.9996,59.4737c-1.3843,0-2.7651,.021-4.1416,.0542-.4097,.0093-.8169,.0288-1.2261,.0405-.981,.0308-1.96,.0654-2.9351,.1138-.4443,.021-.8887,.0503-1.3325,.0732-.96,.0562-1.9194,.1157-2.8755,.1875-.4092,.0288-.8164,.0615-1.2241,.0947-1.0327,.085-2.064,.1772-3.0913,.2798-.313,.0308-.6255,.062-.9385,.0947-1.2417,.1313-2.4775,.2739-3.7114,.4326-.0908,.0112-.1831,.021-.2759,.0347-4.229,.5483-8.4019,1.2549-12.5107,2.1123h-.002c-46.2832,92.9756,162.2661,73.1216,162.2661,128.3872,0,35.9141-27.667,68.8115-73.5908,94.3101-18.7344,10.3999-25.3672,34.0889-14.6543,52.6455l100.2671,173.6663h115.9771v-26.4871c-11.2305-13.7598-26.8809-25.8208-45.7656-35.3999-57.4961-29.1714-105.9668-73.2471-140.6953-127.335h0c49.502-23.0518,83.3882-69.9492,83.3882-124.0542,0-76.9062-68.4678-139.251-152.9277-139.251"/></g></g><g id="a`"/><g id="aa"/><g id="ab"><g id="ac"/></g><g id="ad"/><g id="ae"/></svg>