<?xml version="1.0" encoding="UTF-8"?><svg xmlns="http://www.w3.org/2000/svg" xmlns:xlink="http://www.w3.org/1999/xlink" viewBox="0 0 512 512"><defs><style>.af{fill:url(#ae);}.ag{fill:url(#ad);}</style><linearGradient id="ad" x1="7816.7135" y1="7780.7029" x2="7817.7135" y2="7780.7029" gradientTransform="translate(-4603782.0202 4582810.4446) scale(588.96 -588.96)" gradientUnits="userSpaceOnUse"><stop offset="0" stop-color="#03bde4"/><stop offset=".1655" stop-color="#05b7e0"/><stop offset=".3726" stop-color="#0da8d7"/><stop offset=".6017" stop-color="#1a8ec8"/><stop offset=".8451" stop-color="#2b6bb2"/><stop offset="1" stop-color="#3951a3"/></linearGradient><linearGradient id="ae" x1="7816.7135" y1="7780.7059" x2="7817.7135" y2="7780.7059" gradientTransform="translate(-4603782.0202 4582810.4446) scale(588.96 -588.96)" gradientUnits="userSpaceOnUse"><stop offset="0" stop-color="#009cdb"/><stop offset=".195" stop-color="#0296d7"/><stop offset=".4396" stop-color="#0a87cb"/><stop offset=".7107" stop-color="#186db9"/><stop offset=".9991" stop-color="#2a4a9f"/><stop offset="1" stop-color="#2b4a9f"/></linearGradient></defs><g id="a"/><g id="b"/><g id="c"/><g id="d"/><g id="e"><g id="f"/><g id="g"/><g id="h"/><g id="i"/><g id="j"/></g><g id="k"/><g id="l"><g id="m"/><g id="n"/><g id="o"/></g><g id="p"/><g id="q"/><g id="r"/><g id="s"><g id="t"/><g id="u"/><g id="v"/></g><g id="w"/><g id="x"/><g id="y"/><g id="a`"><g id="aa"/></g><g id="ab"/><g id="ac"><g><path class="ag" d="M221.7345,62.9915c-65.0024,13.5518-114.209,64.8188-118.3667,127.1694h77.5029v6.9683c0,7.896-14.71,46.4502-63.4834,46.4502h-13.8184l-.0503,145.2271c-.0044,10.4541,8.5693,17.6069,17.6528,17.6069,3.7598,0,7.6055-1.2246,10.9678-3.9473l49.1216-39.77,55.4561,96.0513c-22.4185,14.4043-38.6221,32.7437-45.8472,53.2524h205.1533l-100.2671-173.6641c-10.7124-18.5562-4.0801-42.2461,14.6538-52.6475,45.9263-25.4971,73.5903-58.3955,73.5903-94.3096,0-55.2642-208.5479-35.4111-162.2656-128.3872"/><path class="af" d="M255.9996,59.4739c-1.3838,0-2.7661,.021-4.1421,.0537-.4102,.0098-.8179,.0293-1.2256,.041-.98,.0308-1.96,.0654-2.936,.1138-.4448,.0215-.8872,.0483-1.332,.0737-.9604,.0557-1.9194,.1157-2.874,.1875-.4102,.0288-.8179,.0615-1.2236,.0947-1.0342,.083-2.0645,.1777-3.0928,.2803-.313,.0308-.6265,.0596-.9375,.0928-1.2427,.1313-2.48,.2744-3.7114,.4326-.0928,.0117-.1855,.0234-.2764,.0352-4.229,.5488-8.4023,1.2563-12.5117,2.1123h-.002c-46.2822,92.9761,162.2656,73.123,162.2656,128.3872,0,35.9141-27.6641,68.8125-73.5903,94.3096-18.7339,10.4014-25.3662,34.0913-14.6538,52.6475l100.2671,173.6641h115.9775v-26.4854c-11.2324-13.7603-26.8833-25.8198-45.7661-35.4014-57.4966-29.1719-105.9668-73.2466-140.6958-127.3335h0c49.5024-23.0522,83.3887-69.9492,83.3887-124.0537,0-76.9072-68.4663-139.252-152.9277-139.252"/></g></g></svg>