<?xml version="1.0" encoding="UTF-8"?><svg xmlns="http://www.w3.org/2000/svg" xmlns:xlink="http://www.w3.org/1999/xlink" viewBox="0 0 512 512"><defs><style>.af{fill:url(#f);}.ag{fill:url(#e);}</style><linearGradient id="e" x1="7816.7135" y1="603.3936" x2="7817.7135" y2="603.3936" gradientTransform="translate(-4671504.5798 360901.7799) scale(597.6435 -597.6435)" gradientUnits="userSpaceOnUse"><stop offset="0" stop-color="#f9f9fa"/><stop offset=".3717" stop-color="#f3f3f4"/><stop offset=".8356" stop-color="#e4e4e5"/><stop offset="1" stop-color="#dddedf"/></linearGradient><linearGradient id="f" x1="7816.7135" y1="603.3966" x2="7817.7135" y2="603.3966" gradientTransform="translate(-4671504.5798 360901.7799) scale(597.6435 -597.6435)" gradientUnits="userSpaceOnUse"><stop offset="0" stop-color="#dbdcde"/><stop offset=".4244" stop-color="#d5d6d8"/><stop offset=".9823" stop-color="#c4c6c8"/><stop offset="1" stop-color="#c4c6c8"/></linearGradient></defs><g id="a"/><g id="b"/><g id="c"/><g id="d"><g><path class="ag" d="M221.735,62.9917c-65.0039,13.5515-114.2104,64.8203-118.3657,127.1689h77.5029v6.9688c0,7.8957-14.71,46.451-63.4839,46.451h-13.8203l-.0498,145.2272c-.0044,10.4546,8.5688,17.607,17.6528,17.607,3.7598,0,7.6064-1.2247,10.9697-3.9474l49.1216-39.7719,55.4551,96.0515c-22.4185,14.403-38.6211,32.7451-45.8486,53.2538h205.1543l-100.2671-173.6663c-10.7129-18.5545-4.0801-42.2454,14.6543-52.6456,45.9258-25.4983,73.5908-58.3959,73.5908-94.3098,0-55.2659-208.5493-35.4118-162.2661-128.3873"/><path class="af" d="M255.9996,59.4735c-1.3843,0-2.7651,.0212-4.1416,.0541-.4097,.0096-.8169,.0289-1.2261,.0405-.981,.0309-1.96,.0676-2.9351,.114-.4443,.0231-.8887,.0502-1.3325,.0753-.96,.054-1.9194,.1139-2.8755,.1854-.4092,.0309-.8145,.0618-1.2241,.0946-1.0327,.085-2.064,.1776-3.0913,.28-.313,.0328-.6255,.0618-.9385,.0946-1.2417,.1313-2.4775,.2742-3.7114,.4326-.0908,.0116-.1831,.0232-.2759,.0348-4.229,.5483-8.4019,1.2551-12.5107,2.1124h-.002c-46.2832,92.9755,162.2661,73.1214,162.2661,128.3873,0,35.9138-27.665,68.8115-73.5908,94.3098-18.7344,10.4001-25.3672,34.091-14.6543,52.6456l100.2671,173.6663h115.9771v-26.485c-11.2305-13.7619-26.8809-25.8227-45.7656-35.4021-57.4961-29.1709-105.9668-73.2469-140.6953-127.333h0c49.502-23.0537,83.3882-69.9508,83.3882-124.0542,0-76.908-68.4678-139.2528-152.9277-139.2528"/></g></g><g id="g"><g id="h"/><g id="i"/><g id="j"/><g id="k"/><g id="l"/></g><g id="m"/><g id="n"><g id="o"/><g id="p"/><g id="q"/></g><g id="r"/><g id="s"/><g id="t"/><g id="u"><g id="v"/><g id="w"/><g id="x"/></g><g id="y"/><g id="a`"/><g id="aa"/><g id="ab"><g id="ac"/></g><g id="ad"/><g id="ae"/></svg>