<?xml version="1.0" encoding="UTF-8"?><svg xmlns="http://www.w3.org/2000/svg" xmlns:xlink="http://www.w3.org/1999/xlink" viewBox="0 0 512 512"><defs><style>.af{fill:url(#ad);}.ag{fill:url(#ac);}</style><linearGradient id="ac" x1="7816.7135" y1="6983.2241" x2="7817.7135" y2="6983.2241" gradientTransform="translate(-4601196.2172 4110816.7554) scale(588.6292 -588.6292)" gradientUnits="userSpaceOnUse"><stop offset="0" stop-color="#cf1e46"/><stop offset=".1357" stop-color="#c91f49"/><stop offset=".306" stop-color="#ba2552"/><stop offset=".4948" stop-color="#a02d62"/><stop offset=".6969" stop-color="#7c3978"/><stop offset=".9073" stop-color="#4f4995"/><stop offset="1" stop-color="#3951a3"/></linearGradient><linearGradient id="ad" x1="7816.7135" y1="6983.2271" x2="7817.7135" y2="6983.2271" gradientTransform="translate(-4601196.2172 4110816.7554) scale(588.6292 -588.6292)" gradientUnits="userSpaceOnUse"><stop offset="0" stop-color="#882890"/><stop offset=".1812" stop-color="#822990"/><stop offset=".4073" stop-color="#732f93"/><stop offset=".6573" stop-color="#593897"/><stop offset=".9226" stop-color="#36459d"/><stop offset="1" stop-color="#2b4a9f"/></linearGradient></defs><g id="a"/><g id="b"/><g id="c"/><g id="d"/><g id="e"><g id="f"/><g id="g"/><g id="h"/><g id="i"/><g id="j"/></g><g id="k"/><g id="l"><g id="m"/><g id="n"/><g id="o"/></g><g id="p"/><g id="q"/><g id="r"/><g id="s"><g id="t"/><g id="u"/><g id="v"/></g><g id="w"/><g id="x"/><g id="y"/><g id="a`"><g id="aa"/></g><g id="ab"><g><path class="ag" d="M221.1236,62.9922c-65.0049,13.5508-114.2114,64.8198-118.3672,127.1694h77.5029v6.9673c0,7.8965-14.709,46.4507-63.4829,46.4507h-13.8193l-.0503,145.2275c-.0039,10.4536,8.5703,17.6069,17.6538,17.6069,3.7593,0,7.6045-1.2241,10.9673-3.9463l49.1216-39.7715,55.4556,96.0513c-22.418,14.4023-38.6221,32.7441-45.8481,53.2524h205.1533l-100.2651-173.6646c-10.7139-18.5562-4.0806-42.2471,14.6533-52.6479,45.9253-25.4961,73.5903-58.3945,73.5903-94.3096,0-55.2642-208.5479-35.4106-162.2651-128.3857"/><path class="af" d="M255.3873,59.4737c-1.3848,0-2.7651,.0215-4.1401,.0542-.4116,.0098-.8188,.0269-1.228,.0405-.9795,.0308-1.9585,.0659-2.9355,.1138-.4443,.0215-.8862,.0483-1.3306,.0737-.9614,.0557-1.9194,.1157-2.8755,.187-.4092,.0293-.8169,.062-1.2241,.0947-1.0332,.085-2.0645,.1777-3.0918,.2803-.313,.0308-.6255,.0615-.9385,.0942-1.2397,.1313-2.4775,.2744-3.7095,.4326-.0928,.0117-.1855,.0215-.2783,.0327-4.2271,.5508-8.4023,1.2573-12.5117,2.1147h0c-46.2827,92.9751,162.2651,73.1216,162.2651,128.3857,0,35.915-27.665,68.8135-73.5903,94.3096-18.7339,10.4009-25.3672,34.0918-14.6533,52.6479l100.2651,173.6646h116.5903v-25.7202c-11.2715-14.0801-27.1455-26.4102-46.3794-36.168-57.4946-29.1694-105.9653-73.2451-140.6948-127.3315h0c49.5024-23.0537,83.3892-69.9502,83.3892-124.0542,0-76.9062-68.4673-139.2524-152.9282-139.2524"/></g></g><g id="ae"/></svg>