<?xml version="1.0" encoding="UTF-8"?><svg xmlns="http://www.w3.org/2000/svg" xmlns:xlink="http://www.w3.org/1999/xlink" viewBox="0 0 512 512"><defs><style>.af{fill:url(#c);}.ag{fill:url(#b);}</style><linearGradient id="b" x1="7816.7135" y1="-1789.0428" x2="7817.7135" y2="-1789.0428" gradientTransform="translate(-4603781.0655 -1053386.9927) scale(588.9599 -588.9599)" gradientUnits="userSpaceOnUse"><stop offset="0" stop-color="#ece844"/><stop offset=".1144" stop-color="#e6e644"/><stop offset=".2576" stop-color="#d7e244"/><stop offset=".4162" stop-color="#bddb45"/><stop offset=".5859" stop-color="#9ad246"/><stop offset=".7644" stop-color="#6cc648"/><stop offset=".9477" stop-color="#35b74a"/><stop offset="1" stop-color="#24b34b"/></linearGradient><linearGradient id="c" x1="7816.7135" y1="-1789.0398" x2="7817.7135" y2="-1789.0398" gradientTransform="translate(-4603781.0655 -1053386.9927) scale(588.9599 -588.9599)" gradientUnits="userSpaceOnUse"><stop offset="0" stop-color="#a4aa2b"/><stop offset=".1363" stop-color="#9ea82b"/><stop offset=".3093" stop-color="#8ea52e"/><stop offset=".5022" stop-color="#74a132"/><stop offset=".7094" stop-color="#509a37"/><stop offset=".9259" stop-color="#22913e"/><stop offset="1" stop-color="#118e41"/></linearGradient></defs><g id="a"><g><path class="ag" d="M221.735,62.9916c-65.0039,13.5514-114.2104,64.8202-118.3657,127.1688h77.5029v6.9688c0,7.8977-14.71,46.4512-63.4839,46.4512h-13.8203l-.0498,145.2272c-.0044,10.4546,8.5688,17.6069,17.6528,17.6069,3.7598,0,7.6064-1.2246,10.9697-3.9475l49.1216-39.7717,55.4551,96.0515c-22.4185,14.4028-38.6211,32.7451-45.8486,53.2537h205.1543l-100.2671-173.6663c-10.7129-18.5544-4.0801-42.2454,14.6543-52.6455,45.9258-25.4983,73.5908-58.396,73.5908-94.3098,0-55.2639-208.5493-35.4117-162.2661-128.3872"/><path class="af" d="M255.9996,59.4753c-1.3843,0-2.7651,.0193-4.1416,.0521-.4097,.0096-.8169,.0291-1.2261,.0406-.981,.0309-1.96,.0675-2.9351,.1139-.4443,.0232-.8887,.0502-1.3325,.0753-.96,.0541-1.9194,.1139-2.8755,.1853-.4092,.0309-.8145,.0619-1.2241,.0946-1.0327,.085-2.064,.1777-3.0913,.28-.313,.0328-.6255,.0618-.9385,.0946-1.2417,.1313-2.4775,.2742-3.7114,.4326l-.2759,.0347c-4.229,.5503-8.4019,1.2551-12.5107,2.1125h-.002c-46.2832,92.9755,162.2661,73.1233,162.2661,128.3872,0,35.9138-27.665,68.8115-73.5908,94.3098-18.7344,10.4001-25.3672,34.0911-14.6543,52.6455l100.2671,173.6663h115.9771v-26.4849c-11.2305-13.762-26.8809-25.8228-45.7656-35.4021-57.4961-29.1711-105.9668-73.2471-140.6953-127.333h0c49.502-23.0537,83.3882-69.9508,83.3882-124.0543,0-76.906-68.4678-139.2509-152.9277-139.2509"/></g></g><g id="d"/><g id="e"/><g id="f"/><g id="g"><g id="h"/><g id="i"/><g id="j"/><g id="k"/><g id="l"/></g><g id="m"/><g id="n"><g id="o"/><g id="p"/><g id="q"/></g><g id="r"/><g id="s"/><g id="t"/><g id="u"><g id="v"/><g id="w"/><g id="x"/></g><g id="y"/><g id="a`"/><g id="aa"/><g id="ab"><g id="ac"/></g><g id="ad"/><g id="ae"/></svg>