<?xml version="1.0" encoding="UTF-8"?><svg xmlns="http://www.w3.org/2000/svg" xmlns:xlink="http://www.w3.org/1999/xlink" viewBox="0 0 512 512"><defs><style>.af{fill:url(#a`);}.ag{fill:url(#aa);}</style><linearGradient id="a`" x1="7816.7135" y1="6185.7453" x2="7817.7135" y2="6185.7453" gradientTransform="translate(-4598621.3874 3639359.4755) scale(588.2997 -588.2997)" gradientUnits="userSpaceOnUse"><stop offset="0" stop-color="#ee2546"/><stop offset=".1859" stop-color="#eb274b"/><stop offset=".4183" stop-color="#e52f5a"/><stop offset=".6755" stop-color="#db3c74"/><stop offset=".9489" stop-color="#cd4f97"/><stop offset="1" stop-color="#cb539f"/></linearGradient><linearGradient id="aa" x1="7816.7135" y1="6185.7483" x2="7817.7135" y2="6185.7483" gradientTransform="translate(-4598621.3874 3639359.4755) scale(588.2997 -588.2997)" gradientUnits="userSpaceOnUse"><stop offset="0" stop-color="#c71330"/><stop offset=".2776" stop-color="#c41335"/><stop offset=".6119" stop-color="#bd1543"/><stop offset=".9742" stop-color="#b1185b"/><stop offset="1" stop-color="#b1195e"/></linearGradient></defs><g id="a"/><g id="b"/><g id="c"/><g id="d"/><g id="e"><g id="f"/><g id="g"/><g id="h"/><g id="i"/><g id="j"/></g><g id="k"/><g id="l"><g id="m"/><g id="n"/><g id="o"/></g><g id="p"/><g id="q"/><g id="r"/><g id="s"><g id="t"/><g id="u"/><g id="v"/></g><g id="w"/><g id="x"/><g id="y"><g><path class="af" d="M220.5113,62.9924c-65.0024,13.5518-114.2109,64.8193-118.3667,127.168h77.5034v6.9683c0,7.8965-14.7104,46.4521-63.4844,46.4521h-13.8184l-.0503,145.2251c-.0039,10.4551,8.5688,17.6074,17.6523,17.6074,3.7598,0,7.606-1.2246,10.9692-3.9473l49.1216-39.7705,55.4541,96.0513c-22.416,14.4033-38.6196,32.7446-45.8481,53.2524h205.1543l-100.2656-173.6646c-10.7124-18.5557-4.0806-42.2466,14.6523-52.6465,45.9277-25.4966,73.5908-58.3955,73.5908-94.3091,0-55.2651-208.5474-35.4116-162.2646-128.3867"/><path class="ag" d="M254.776,59.4738c-1.3848,0-2.7656,.0215-4.1406,.0542-.4111,.0098-.8188,.0269-1.2285,.0405-.979,.0308-1.958,.0654-2.9336,.1138-.4458,.0215-.8882,.0483-1.3325,.0732-.9595,.0562-1.9194,.1162-2.8755,.1875-.4077,.0288-.8149,.062-1.2227,.0947-1.0352,.083-2.0645,.1777-3.0938,.2798-.313,.0312-.6255,.062-.9365,.0947-1.2417,.1313-2.48,.2744-3.71,.4326-.0928,.0117-.1855,.0215-.2783,.0327-4.2295,.5508-8.4009,1.2573-12.5127,2.1128v.002h0c-46.2827,92.9751,162.2646,73.1216,162.2646,128.3867,0,35.9136-27.6631,68.8125-73.5908,94.3091-18.7329,10.3999-25.3647,34.0908-14.6523,52.6465l100.2656,173.6646h117.2021v-24.9556c-11.3057-14.3975-27.4102-26.9971-46.9893-36.9316-57.4956-29.1699-105.9683-73.2471-140.6963-127.332h0c49.502-23.0532,83.3896-69.9502,83.3896-124.0547,0-76.9062-68.4688-139.2515-152.9287-139.2515"/></g></g><g id="ab"><g id="ac"/></g><g id="ad"/><g id="ae"/></svg>