<?xml version="1.0" encoding="UTF-8"?><svg xmlns="http://www.w3.org/2000/svg" xmlns:xlink="http://www.w3.org/1999/xlink" viewBox="0 0 512 512"><defs><style>.af{fill:url(#y);}.ag{fill:url(#a`);}</style><linearGradient id="y" x1="7816.7135" y1="5388.2665" x2="7817.7135" y2="5388.2665" gradientTransform="translate(-4671503.149 3220548.9293) scale(597.6433 -597.6433)" gradientUnits="userSpaceOnUse"><stop offset="0" stop-color="#ece844"/><stop offset=".0306" stop-color="#e9de42"/><stop offset=".2121" stop-color="#d8aa39"/><stop offset=".3902" stop-color="#cb7f32"/><stop offset=".5615" stop-color="#c05d2c"/><stop offset=".724" stop-color="#b94528"/><stop offset=".8741" stop-color="#b43725"/><stop offset="1" stop-color="#b33225"/></linearGradient><linearGradient id="a`" x1="7816.7135" y1="5388.2694" x2="7817.7135" y2="5388.2694" gradientTransform="translate(-4671503.149 3220548.9293) scale(597.6433 -597.6433)" gradientUnits="userSpaceOnUse"><stop offset="0" stop-color="#a4aa2b"/><stop offset=".0456" stop-color="#a19f2a"/><stop offset=".2567" stop-color="#977626"/><stop offset=".4627" stop-color="#905524"/><stop offset=".6593" stop-color="#8a3e22"/><stop offset=".8428" stop-color="#872f21"/><stop offset="1" stop-color="#862b21"/></linearGradient></defs><g id="a"/><g id="b"/><g id="c"/><g id="d"/><g id="e"><g id="f"/><g id="g"/><g id="h"/><g id="i"/><g id="j"/></g><g id="k"/><g id="l"><g id="m"/><g id="n"/><g id="o"/></g><g id="p"/><g id="q"/><g id="r"/><g id="s"><g id="t"/><g id="u"/><g id="v"/></g><g id="w"/><g id="x"><g><path class="af" d="M221.735,62.9921c-65.0039,13.5513-114.2104,64.8198-118.3677,127.1685h77.5049v6.9688c0,7.896-14.71,46.4512-63.4839,46.4512h-13.8203l-.0498,145.2271c-.0044,10.4546,8.5688,17.6074,17.6528,17.6074,3.7598,0,7.6064-1.2251,10.9697-3.9478l49.1216-39.772,55.4551,96.0518c-22.4185,14.4028-38.6211,32.7451-45.8486,53.2539h205.1543l-100.2671-173.6665c-10.7129-18.5542-4.0801-42.2451,14.6543-52.6455,45.9238-25.498,73.5908-58.396,73.5908-94.3096,0-55.2661-208.5493-35.4121-162.2661-128.3872"/><path class="ag" d="M255.9996,59.4736c-1.3843,0-2.7651,.0215-4.1416,.0542-.4097,.0098-.8169,.0288-1.2261,.0405-.981,.0308-1.96,.0674-2.9351,.1138-.4443,.0234-.8887,.0483-1.3325,.0757-.96,.0537-1.9194,.1138-2.8755,.1851-.4092,.0293-.8164,.062-1.2241,.0947-1.0327,.085-2.064,.1777-3.0913,.2798-.313,.0332-.6255,.062-.9385,.0947-1.2417,.1313-2.4775,.2744-3.7114,.4326-.0908,.0117-.1831,.0215-.2759,.0347-4.229,.5483-8.4019,1.2554-12.5107,2.1128h-.002c-46.2832,92.9751,162.2661,73.1211,162.2661,128.3872,0,35.9136-27.667,68.8115-73.5908,94.3096-18.7344,10.4004-25.3672,34.0913-14.6543,52.6455l100.2671,173.6665h115.9771v-26.4849c-11.2305-13.7622-26.8809-25.8228-45.7656-35.4023-57.4961-29.1709-105.9668-73.2471-140.6953-127.335h0c49.502-23.0518,83.3882-69.9487,83.3882-124.0522,0-76.9082-68.4678-139.2529-152.9277-139.2529"/></g></g><g id="aa"/><g id="ab"><g id="ac"/></g><g id="ad"/><g id="ae"/></svg>