<?xml version="1.0" encoding="UTF-8"?><svg xmlns="http://www.w3.org/2000/svg" xmlns:xlink="http://www.w3.org/1999/xlink" viewBox="0 0 512 512"><defs><style>.af{fill:url(#r);}.ag{fill:url(#q);}</style><linearGradient id="q" x1="7816.7135" y1="2198.3512" x2="7817.7135" y2="2198.3512" gradientTransform="translate(-4603781.0655 1295028.2104) scale(588.9599 -588.9599)" gradientUnits="userSpaceOnUse"><stop offset="0" stop-color="#6d4099"/><stop offset=".2059" stop-color="#6a3c93"/><stop offset=".4637" stop-color="#633384"/><stop offset=".748" stop-color="#58246a"/><stop offset="1" stop-color="#4b144e"/></linearGradient><linearGradient id="r" x1="7816.7135" y1="2198.3542" x2="7817.7135" y2="2198.3542" gradientTransform="translate(-4603781.0655 1295028.2104) scale(588.9599 -588.9599)" gradientUnits="userSpaceOnUse"><stop offset="0" stop-color="#532b8a"/><stop offset=".2361" stop-color="#502884"/><stop offset=".5281" stop-color="#492275"/><stop offset=".8483" stop-color="#3d185c"/><stop offset="1" stop-color="#37134e"/></linearGradient></defs><g id="a"/><g id="b"/><g id="c"/><g id="d"/><g id="e"><g id="f"/><g id="g"/><g id="h"/><g id="i"/><g id="j"/></g><g id="k"/><g id="l"><g id="m"/><g id="n"/><g id="o"/></g><g id="p"><g><path class="ag" d="M221.735,62.9917c-65.0039,13.5515-114.2104,64.8203-118.3657,127.1689h77.5029v6.9689c0,7.8956-14.71,46.451-63.4839,46.451h-13.8203l-.0498,145.2272c-.0044,10.4545,8.5688,17.6069,17.6528,17.6069,3.7598,0,7.6064-1.2246,10.9697-3.9474l49.1216-39.7719,55.4551,96.0515c-22.4185,14.403-38.6211,32.7451-45.8486,53.2538h205.1543l-100.2671-173.6663c-10.7129-18.5546-4.0801-42.2455,14.6543-52.6456,45.9258-25.4983,73.5908-58.3959,73.5908-94.3098,0-55.2657-208.5493-35.4117-162.2661-128.3873"/><path class="af" d="M255.9996,59.4736c-1.3843,0-2.7651,.0212-4.1416,.054-.4097,.0098-.8169,.0291-1.2261,.0405-.981,.031-1.96,.0676-2.9351,.114-.4443,.0232-.8887,.0503-1.3325,.0752-.96,.0542-1.9194,.114-2.8755,.1855-.4092,.0308-.8145,.0618-1.2241,.0945-1.0327,.085-2.064,.1777-3.0913,.28-.313,.033-.6255,.0618-.9385,.0947-1.2417,.1313-2.4775,.2742-3.7114,.4324-.0908,.0117-.1831,.0212-.2759,.0349-4.229,.5483-8.4019,1.2551-12.5107,2.1123h-.002c-46.2832,92.9756,162.2661,73.1216,162.2661,128.3873,0,35.9139-27.665,68.8115-73.5908,94.3098-18.7344,10.4001-25.3672,34.0911-14.6543,52.6456l100.2671,173.6663h115.9771v-26.485c-11.2305-13.762-26.8809-25.8226-45.7656-35.4021-57.4961-29.171-105.9668-73.2469-140.6953-127.333h0c49.502-23.0537,83.3882-69.9508,83.3882-124.0543,0-76.906-68.4678-139.2527-152.9277-139.2527"/></g></g><g id="s"/><g id="t"/><g id="u"><g id="v"/><g id="w"/><g id="x"/></g><g id="y"/><g id="a`"/><g id="aa"/><g id="ab"><g id="ac"/></g><g id="ad"/><g id="ae"/></svg>