<?xml version="1.0" encoding="UTF-8"?><svg xmlns="http://www.w3.org/2000/svg" xmlns:xlink="http://www.w3.org/1999/xlink" viewBox="0 0 512 512"><defs><style>.ag{fill:#a7a9ac;}.ah{fill:url(#p);}.ai{fill:url(#o);}</style><linearGradient id="o" x1="5498.387" y1="2198.2242" x2="5499.0537" y2="2198.2242" gradientTransform="translate(-3238192.3191 1295028.2104) scale(588.9599 -588.9599)" gradientUnits="userSpaceOnUse"><stop offset="0" stop-color="#6d4099"/><stop offset=".2059" stop-color="#6a3c93"/><stop offset=".4637" stop-color="#633384"/><stop offset=".748" stop-color="#58246a"/><stop offset="1" stop-color="#4b144e"/></linearGradient><linearGradient id="p" x1="5498.387" y1="2198.2261" x2="5499.0537" y2="2198.2261" gradientTransform="translate(-3238192.3191 1295028.2104) scale(588.9599 -588.9599)" gradientUnits="userSpaceOnUse"><stop offset="0" stop-color="#532b8a"/><stop offset=".2361" stop-color="#502884"/><stop offset=".5281" stop-color="#492275"/><stop offset=".8483" stop-color="#3d185c"/><stop offset="1" stop-color="#37134e"/></linearGradient></defs><g id="a"/><g id="b"/><g id="c"/><g id="d"/><g id="e"><g id="f"/><g id="g"/><g id="h"/><g id="i"/><g id="j"/></g><g id="k"/><g id="l"><g id="m"><path id="n" class="ag" d="M459.5832,103.5703c.312,4.5137,.312,9.0273,.312,13.5826,0,138.8006-105.6657,298.8799-298.8799,298.8799v-.0832c-57.0761,.0832-112.9665-16.2659-161.0153-47.092,8.2993,.9984,16.6403,1.4976,25.002,1.5184,47.2999,.0416,93.2479-15.829,130.4596-45.0535-44.9495-.8528-84.3661-30.1605-98.1359-72.9467,15.7458,3.0368,31.9701,2.4128,47.4247-1.8096-49.0056-9.9009-84.2621-52.9576-84.2621-102.9616v-1.3312c14.6018,8.1329,30.9509,12.6466,47.6743,13.1458C22.0067,128.5723,7.7793,67.1697,35.6518,19.1626c53.332,65.625,132.0197,105.52,216.4898,109.7425-8.4657-36.4838,3.0992-74.7148,30.3893-100.3616,42.3079-39.7702,108.8481-37.7318,148.6183,4.5553,23.5252-4.6385,46.0727-13.2706,66.7067-25.5012-7.8417,24.3156-24.2532,44.9703-46.1767,58.0953,20.8211-2.4544,41.1638-8.0289,60.3209-16.5363-14.1026,21.1331-31.8661,39.5414-52.4168,54.4137Z"/><g><path class="ai" d="M318.4899,212.6606c-43.3359,9.0343-76.1403,43.2135-78.9105,84.7793h51.6686v4.6459c0,5.2638-9.8066,30.9674-42.3226,30.9674h-9.2135l-.0332,96.8181c-.0029,6.9696,5.7126,11.738,11.7686,11.738,2.5065,0,5.071-.8164,7.3132-2.6316l32.7477-26.5146,36.9701,64.0343c-14.9456,9.602-25.7474,21.8301-30.5658,35.5025h136.7695l-66.8447-115.7775c-7.1419-12.3697-2.7201-28.1637,9.7695-35.0971,30.6172-16.9989,49.0606-38.9306,49.0606-62.8732,0-36.8438-139.0329-23.6078-108.1774-85.5916"/><path class="ah" d="M341.333,210.3152c-.9229,0-1.8434,.0142-2.7611,.036-.2731,.0065-.5446,.0194-.8174,.027-.654,.0207-1.3066,.0451-1.9567,.076-.2962,.0155-.5924,.0335-.8883,.0501-.64,.0361-1.2796,.076-1.917,.1237-.2728,.0205-.543,.0412-.8161,.063-.6885,.0566-1.376,.1185-2.0609,.1867-.2087,.022-.417,.0412-.6257,.0632-.8278,.0876-1.6517,.1828-2.4743,.2882-.0605,.0078-.1221,.0142-.1839,.0233-2.8193,.3656-5.6012,.8368-8.3405,1.4082h-.0013c-30.8555,61.9837,108.1774,48.7477,108.1774,85.5916,0,23.9426-18.4434,45.8744-49.0606,62.8732-12.4896,6.9334-16.9115,22.7274-9.7695,35.0971l66.8447,115.7775h77.318v-17.6567c-7.487-9.1746-17.9206-17.2151-30.5104-23.6014-38.3307-19.4473-70.6445-48.8313-93.7969-84.8887h0c33.0013-15.3691,55.5921-46.6339,55.5921-82.7029,0-51.2707-45.6452-92.8351-101.9518-92.8351"/></g></g><g id="q"/><g id="r"/></g><g id="s"/><g id="t"/><g id="u"/><g id="v"><g id="w"/><g id="x"/><g id="y"/></g><g id="a`"/><g id="aa"/><g id="ab"/><g id="ac"><g id="ad"/></g><g id="ae"/><g id="af"/></svg>