<?xml version="1.0" encoding="UTF-8"?><svg xmlns="http://www.w3.org/2000/svg" xmlns:xlink="http://www.w3.org/1999/xlink" viewBox="0 0 512 512"><defs><style>.af{fill:#a7a9ac;}.ag{fill:url(#p);}.ah{fill:url(#q);}</style><linearGradient id="p" x1="7044.1501" y1="2198.2242" x2="7044.8168" y2="2198.2242" gradientTransform="translate(-4148584.8167 1295028.2104) scale(588.9599 -588.9599)" gradientUnits="userSpaceOnUse"><stop offset="0" stop-color="#6d4099"/><stop offset=".2059" stop-color="#6a3c93"/><stop offset=".4637" stop-color="#633384"/><stop offset=".748" stop-color="#58246a"/><stop offset="1" stop-color="#4b144e"/></linearGradient><linearGradient id="q" x1="7044.1501" y1="2198.2261" x2="7044.8168" y2="2198.2261" gradientTransform="translate(-4148584.8167 1295028.2104) scale(588.9599 -588.9599)" gradientUnits="userSpaceOnUse"><stop offset="0" stop-color="#532b8a"/><stop offset=".2361" stop-color="#502884"/><stop offset=".5281" stop-color="#492275"/><stop offset=".8483" stop-color="#3d185c"/><stop offset="1" stop-color="#37134e"/></linearGradient></defs><g id="a"/><g id="b"/><g id="c"/><g id="d"/><g id="e"><g id="f"/><g id="g"/><g id="h"/><g id="i"/><g id="j"/></g><g id="k"/><g id="l"><g id="m"/><g id="n"/><g id="o"><path class="af" d="M433.4296,32.3501C400.7965,17.3767,365.8024,6.3449,329.2138,.0265c-.6663-.1219-1.3319,.1828-1.6752,.7923-4.5006,8.0046-9.4857,18.4472-12.9767,26.6551-39.3533-5.8916-78.5047-5.8916-117.0511,0-3.4917-8.3903-8.6578-18.6505-13.1786-26.6551-.3433-.5892-1.0089-.8939-1.6752-.7923-36.5683,6.2982-71.5625,17.33-104.2158,32.3236-.2827,.1219-.525,.3252-.6858,.5892C11.379,132.1043-6.8043,228.8319,2.1158,324.3603c.0404,.4673,.3027,.9144,.666,1.1985,43.7933,32.1608,86.2146,51.6853,127.8481,64.6267,.6663,.2033,1.3723-.0404,1.7963-.5892,9.8484-13.449,18.6274-27.63,26.1545-42.5429,.4442-.8733,.0202-1.9096-.8877-2.255-13.925-5.2823-27.1843-11.7227-39.9389-19.0363-1.0089-.5892-1.0896-2.0321-.1615-2.723,2.684-2.0112,5.3688-4.1039,7.9317-6.2168,.4637-.3858,1.1098-.4673,1.655-.2235,83.792,38.2565,174.5069,38.2565,257.3103,0,.5452-.2639,1.1913-.1825,1.6752,.2033,2.5636,2.1129,5.2476,4.2258,7.9519,6.237,.9281,.6909,.8675,2.1338-.1413,2.723-12.7546,7.4557-26.0139,13.754-39.9591,19.0161-.9079,.3454-1.3117,1.4018-.8675,2.2751,7.6886,14.892,16.4676,29.073,26.1344,42.5227,.4038,.569,1.13,.8127,1.7963,.6093,41.8354-12.9414,84.2564-32.4659,128.0497-64.6267,.3836-.2841,.6259-.711,.6663-1.1783,10.6756-110.4413-17.8811-206.3757-75.7003-291.421-.1413-.2841-.3829-.4875-.6656-.6094ZM171.0938,266.1935c-25.2272,0-46.0137-23.1604-46.0137-51.6038s20.3834-51.6038,46.0137-51.6038c25.8315,0,46.4168,23.3638,46.0129,51.6038,0,28.4434-20.3834,51.6038-46.0129,51.6038Zm170.1275,0c-25.2265,0-46.0129-23.1604-46.0129-51.6038s20.3826-51.6038,46.0129-51.6038c25.8322,0,46.4168,23.3638,46.0137,51.6038,0,28.4434-20.1814,51.6038-46.0137,51.6038Z"/><g><path class="ag" d="M318.4899,212.6606c-43.3359,9.0343-76.1403,43.2135-78.9105,84.7793h51.6686v4.6459c0,5.2638-9.8066,30.9674-42.3226,30.9674h-9.2135l-.0332,96.8181c-.0029,6.9696,5.7126,11.738,11.7686,11.738,2.5065,0,5.071-.8164,7.3132-2.6316l32.7477-26.5146,36.9701,64.0343c-14.9456,9.602-25.7474,21.8301-30.5658,35.5025h136.7695l-66.8447-115.7775c-7.1419-12.3697-2.7201-28.1637,9.7695-35.0971,30.6172-16.9989,49.0606-38.9306,49.0606-62.8732,0-36.8438-139.0329-23.6078-108.1774-85.5916"/><path class="ah" d="M341.333,210.3152c-.9229,0-1.8434,.0142-2.7611,.036-.2731,.0065-.5446,.0194-.8174,.027-.654,.0207-1.3066,.0451-1.9567,.076-.2962,.0155-.5924,.0335-.8883,.0501-.64,.0361-1.2796,.076-1.917,.1237-.2728,.0205-.543,.0412-.8161,.063-.6885,.0566-1.376,.1185-2.0609,.1867-.2087,.022-.417,.0412-.6257,.0632-.8278,.0876-1.6517,.1828-2.4743,.2882-.0605,.0078-.1221,.0142-.1839,.0233-2.8193,.3656-5.6012,.8368-8.3405,1.4082h-.0013c-30.8555,61.9837,108.1774,48.7477,108.1774,85.5916,0,23.9426-18.4434,45.8744-49.0606,62.8732-12.4896,6.9334-16.9115,22.7274-9.7695,35.0971l66.8447,115.7775h77.318v-17.6567c-7.487-9.1746-17.9206-17.2151-30.5104-23.6014-38.3307-19.4473-70.6445-48.8313-93.7969-84.8887h0c33.0013-15.3691,55.5921-46.6339,55.5921-82.7029,0-51.2707-45.6452-92.8351-101.9518-92.8351"/></g></g></g><g id="r"/><g id="s"/><g id="t"/><g id="u"><g id="v"/><g id="w"/><g id="x"/></g><g id="y"/><g id="a`"/><g id="aa"/><g id="ab"><g id="ac"/></g><g id="ad"/><g id="ae"/></svg>