<?xml version="1.0" encoding="UTF-8"?><svg xmlns="http://www.w3.org/2000/svg" xmlns:xlink="http://www.w3.org/1999/xlink" viewBox="0 0 512 512"><defs><style>.af{fill:url(#r);}.ag{fill:url(#s);}</style><linearGradient id="r" x1="7816.7135" y1="2995.8301" x2="7817.7135" y2="2995.8301" gradientTransform="translate(-4671504.5798 1790725.8478) scale(597.6435 -597.6435)" gradientUnits="userSpaceOnUse"><stop offset="0" stop-color="#4674b9"/><stop offset=".1788" stop-color="#436fb3"/><stop offset=".4023" stop-color="#3d61a4"/><stop offset=".6494" stop-color="#334b8a"/><stop offset=".9118" stop-color="#242b67"/><stop offset="1" stop-color="#1f205a"/></linearGradient><linearGradient id="s" x1="7816.7135" y1="2995.833" x2="7817.7135" y2="2995.833" gradientTransform="translate(-4671504.5798 1790725.8478) scale(597.6435 -597.6435)" gradientUnits="userSpaceOnUse"><stop offset="0" stop-color="#12408f"/><stop offset=".2324" stop-color="#123c89"/><stop offset=".5269" stop-color="#153179"/><stop offset=".8537" stop-color="#181f60"/><stop offset="1" stop-color="#1b1652"/></linearGradient></defs><g id="a"/><g id="b"/><g id="c"/><g id="d"/><g id="e"><g id="f"/><g id="g"/><g id="h"/><g id="i"/><g id="j"/></g><g id="k"/><g id="l"><g id="m"/><g id="n"/><g id="o"/></g><g id="p"/><g id="q"><g><path class="af" d="M221.735,62.9917c-65.0039,13.5515-114.2104,64.8203-118.3657,127.1689h77.5029v6.9688c0,7.8958-14.71,46.4512-63.4839,46.4512h-13.8203l-.0498,145.2271c-.0044,10.4534,8.5698,17.6067,17.6538,17.6067,3.7598,0,7.6055-1.2244,10.9688-3.947l49.1216-39.772,55.4551,96.0515c-22.4185,14.4031-38.6211,32.7451-45.8486,53.2539h205.1543l-100.2671-173.6663c-10.7129-18.5547-4.0801-42.2456,14.6543-52.6455,45.9258-25.4983,73.5908-58.396,73.5908-94.3098,0-55.2659-208.5493-35.4119-162.2661-128.3875"/><path class="ag" d="M255.9996,59.4736c-1.3843,0-2.7651,.0212-4.1416,.054-.4097,.0098-.8169,.0291-1.2261,.0405-.981,.031-1.96,.0676-2.9351,.114-.4443,.0232-.8887,.0503-1.3325,.0752-.96,.0542-1.9194,.114-2.8755,.1855-.4092,.0288-.8145,.0618-1.2241,.0945-1.0327,.085-2.064,.1777-3.0913,.28-.313,.033-.6255,.0618-.9385,.0947-1.2417,.1311-2.4775,.2742-3.7114,.4324-.0908,.0117-.1831,.0212-.2759,.0349-4.229,.5483-8.4019,1.2551-12.5107,2.1123h-.002c-46.2832,92.9756,162.2661,73.1216,162.2661,128.3875,0,35.9138-27.665,68.8115-73.5908,94.3098-18.7344,10.3999-25.3672,34.0908-14.6543,52.6455l100.2671,173.6663h115.9771v-26.4851c-11.2305-13.7617-26.8809-25.8225-45.7656-35.4021-57.4961-29.1709-105.9668-73.2468-140.6953-127.335h0c49.502-23.0518,83.3882-69.9487,83.3882-124.0522,0-76.908-68.4678-139.2527-152.9277-139.2527"/></g></g><g id="t"/><g id="u"><g id="v"/><g id="w"/><g id="x"/></g><g id="y"/><g id="a`"/><g id="aa"/><g id="ab"><g id="ac"/></g><g id="ad"/><g id="ae"/></svg>