<?xml version="1.0" encoding="UTF-8"?><svg xmlns="http://www.w3.org/2000/svg" xmlns:xlink="http://www.w3.org/1999/xlink" viewBox="0 0 512 512"><defs><style>.af{fill:url(#c);}.ag{fill:url(#d);}</style><linearGradient id="c" x1="7816.7135" y1="-991.564" x2="7817.7135" y2="-991.564" gradientTransform="translate(-4603781.0655 -583703.9522) scale(588.9599 -588.9599)" gradientUnits="userSpaceOnUse"><stop offset="0" stop-color="#595a5c"/><stop offset=".2403" stop-color="#545456"/><stop offset=".5406" stop-color="#464547"/><stop offset=".8717" stop-color="#2e2c2d"/><stop offset="1" stop-color="#242122"/></linearGradient><linearGradient id="d" x1="7816.7135" y1="-991.561" x2="7817.7135" y2="-991.561" gradientTransform="translate(-4603781.0655 -583703.9522) scale(588.9599 -588.9599)" gradientUnits="userSpaceOnUse"><stop offset="0" stop-color="#3a393a"/><stop offset=".3866" stop-color="#353334"/><stop offset=".8466" stop-color="#282526"/><stop offset="1" stop-color="#231f20"/></linearGradient></defs><g id="a"/><g id="b"><path class="af" d="M221.735,62.9916c-65.0039,13.5515-114.2104,64.8203-118.3657,127.1689h77.5029v6.9688c0,7.8958-14.71,46.451-63.4839,46.451h-13.8203l-.0498,145.2272c-.0044,10.4546,8.5688,17.6071,17.6528,17.6071,3.7598,0,7.6064-1.2247,10.9697-3.9475l49.1216-39.7719,55.4551,96.0515c-22.4185,14.4031-38.6211,32.7451-45.8486,53.2538h205.1543l-100.2671-173.6663c-10.7129-18.5544-4.0801-42.2454,14.6543-52.6455,45.9258-25.4983,73.5908-58.396,73.5908-94.3098,0-55.2639-208.5493-35.4117-162.2661-128.3873"/><path class="ag" d="M255.9996,59.4734c-1.3843,0-2.7651,.0212-4.1416,.0541-.4097,.0096-.8169,.0289-1.2261,.0405-.981,.031-1.96,.0676-2.9351,.114-.4443,.0232-.8887,.0502-1.3325,.0753-.96,.0541-1.9194,.1139-2.8755,.1853-.4092,.0309-.8145,.0618-1.2241,.0946-1.0327,.085-2.064,.1777-3.0913,.28-.313,.0328-.6255,.0618-.9385,.0946-1.2417,.1313-2.4775,.2742-3.7114,.4325-.0908,.0116-.1831,.0212-.2759,.0348-4.229,.5485-8.4019,1.2551-12.5107,2.1124h-.002c-46.2832,92.9756,162.2661,73.1234,162.2661,128.3873,0,35.9138-27.665,68.8115-73.5908,94.3098-18.7344,10.4001-25.3672,34.0911-14.6543,52.6455l100.2671,173.6663h115.9771v-26.485c-11.2305-13.7618-26.8809-25.8226-45.7656-35.4021-57.4961-29.1709-105.9668-73.2469-140.6953-127.333h0c49.502-23.0536,83.3882-69.9508,83.3882-124.0542,0-76.908-68.4678-139.2528-152.9277-139.2528"/></g><g id="e"/><g id="f"/><g id="g"><g id="h"/><g id="i"/><g id="j"/><g id="k"/><g id="l"/></g><g id="m"/><g id="n"><g id="o"/><g id="p"/><g id="q"/></g><g id="r"/><g id="s"/><g id="t"/><g id="u"><g id="v"/><g id="w"/><g id="x"/></g><g id="y"/><g id="a`"/><g id="aa"/><g id="ab"><g id="ac"/></g><g id="ad"/><g id="ae"/></svg>