<?xml version="1.0" encoding="UTF-8"?><svg xmlns="http://www.w3.org/2000/svg" xmlns:xlink="http://www.w3.org/1999/xlink" viewBox="0 0 512 512"><defs><style>.af{fill:url(#l);}.ag{fill:url(#m);}</style><linearGradient id="l" x1="7816.7135" y1="1400.8724" x2="7817.7135" y2="1400.8724" gradientTransform="translate(-4603781.0655 825345.1698) scale(588.9599 -588.9599)" gradientUnits="userSpaceOnUse"><stop offset="0" stop-color="#f7f294"/><stop offset=".1578" stop-color="#f7ed8e"/><stop offset=".3551" stop-color="#f7e07f"/><stop offset=".5736" stop-color="#f7ca65"/><stop offset=".8055" stop-color="#f7ac42"/><stop offset="1" stop-color="#f78e1f"/></linearGradient><linearGradient id="m" x1="7816.7135" y1="1400.8754" x2="7817.7135" y2="1400.8754" gradientTransform="translate(-4603781.0655 825345.1698) scale(588.9599 -588.9599)" gradientUnits="userSpaceOnUse"><stop offset="0" stop-color="#dce11f"/><stop offset=".194" stop-color="#dbdb1f"/><stop offset=".4284" stop-color="#dbcd21"/><stop offset=".6836" stop-color="#dbb424"/><stop offset=".952" stop-color="#db9228"/><stop offset="1" stop-color="#db8c29"/></linearGradient></defs><g id="a"/><g id="b"/><g id="c"/><g id="d"/><g id="e"><g id="f"/><g id="g"/><g id="h"/><g id="i"/><g id="j"/></g><g id="k"><g><path class="af" d="M221.735,62.9917c-65.0039,13.5514-114.2104,64.8202-118.3657,127.1688h77.5029v6.9689c0,7.8956-14.71,46.451-63.4839,46.451h-13.8203l-.0498,145.2271c-.0044,10.4532,8.5698,17.6067,17.6538,17.6067,3.7598,0,7.6055-1.2243,10.9688-3.9471l49.1216-39.7719,55.4551,96.0515c-22.4185,14.403-38.6211,32.7452-45.8486,53.2538h205.1543l-100.2671-173.6663c-10.7129-18.5546-4.0801-42.2455,14.6543-52.6456,45.9258-25.4982,73.5908-58.3959,73.5908-94.3097,0-55.2659-208.5493-35.4119-162.2661-128.3873"/><path class="ag" d="M255.9996,59.4735c-1.3843,0-2.7651,.0212-4.1416,.0541-.4097,.0096-.8169,.0289-1.2261,.0405-.981,.0309-1.96,.0676-2.9351,.1139-.4443,.0212-.8887,.0502-1.3325,.0753-.96,.0541-1.9194,.1139-2.8755,.1854-.4092,.0309-.8145,.0618-1.2241,.0946-1.0327,.085-2.064,.1776-3.0913,.2799-.313,.0328-.6255,.0619-.9385,.0947-1.2417,.1312-2.4775,.2742-3.7114,.4325-.0908,.0116-.1831,.0212-.2759,.0348-4.229,.5483-8.4019,1.2551-12.5107,2.1124h-.002c-46.2832,92.9755,162.2661,73.1215,162.2661,128.3873,0,35.9138-27.665,68.8115-73.5908,94.3097-18.7344,10.4001-25.3672,34.0911-14.6543,52.6456l100.2671,173.6663h115.9771v-26.485c-11.2305-13.7619-26.8809-25.8227-45.7656-35.4022-57.4961-29.1709-105.9668-73.2469-140.6953-127.3349h0c49.502-23.0518,83.3882-69.9489,83.3882-124.0522,0-76.9061-68.4678-139.2528-152.9277-139.2528"/></g></g><g id="n"><g id="o"/><g id="p"/><g id="q"/></g><g id="r"/><g id="s"/><g id="t"/><g id="u"><g id="v"/><g id="w"/><g id="x"/></g><g id="y"/><g id="a`"/><g id="aa"/><g id="ab"><g id="ac"/></g><g id="ad"/><g id="ae"/></svg>