<?xml version="1.0" encoding="UTF-8"?><svg xmlns="http://www.w3.org/2000/svg" xmlns:xlink="http://www.w3.org/1999/xlink" viewBox="0 0 512 512"><defs><style>.af{fill:#fff;}.ag{fill:#a7a9ac;}.ah{stroke:#fff;}.ah,.ai,.aj,.ak{fill:none;stroke-miterlimit:10;stroke-width:75px;}.ai{stroke:#a7a9ac;}.al{fill:url(#i);}.aj{stroke:#d1d3d4;}.am{fill:#d1d3d4;}.an{fill:url(#j);}.ak{stroke:#bcbec0;}.ao{fill:#bcbec0;}</style><linearGradient id="i" x1="6271.2686" y1="1400.7453" x2="6271.9352" y2="1400.7453" gradientTransform="translate(-3693388.5679 825345.1698) scale(588.9599 -588.9599)" gradientUnits="userSpaceOnUse"><stop offset="0" stop-color="#f7f294"/><stop offset=".1578" stop-color="#f7ed8e"/><stop offset=".3551" stop-color="#f7e07f"/><stop offset=".5736" stop-color="#f7ca65"/><stop offset=".8055" stop-color="#f7ac42"/><stop offset="1" stop-color="#f78e1f"/></linearGradient><linearGradient id="j" x1="6271.2686" y1="1400.7473" x2="6271.9352" y2="1400.7473" gradientTransform="translate(-3693388.5679 825345.1698) scale(588.9599 -588.9599)" gradientUnits="userSpaceOnUse"><stop offset="0" stop-color="#dce11f"/><stop offset=".194" stop-color="#dbdb1f"/><stop offset=".4284" stop-color="#dbcd21"/><stop offset=".6836" stop-color="#dbb424"/><stop offset=".952" stop-color="#db9228"/><stop offset="1" stop-color="#db8c29"/></linearGradient></defs><g id="a"/><g id="b"/><g id="c"/><g id="d"/><g id="e"><g id="f"/><g id="g"/><g id="h"><g><line class="ai" x1="102.3404" y1="74.6667" x2="304.5274" y2="74.6667"/><polygon class="ag" points="282.6426 149.4616 412.1709 74.6667 282.6426 -.1283 282.6426 149.4616"/></g><g><line class="ak" x1="102.3404" y1="159.6918" x2="304.5274" y2="159.6918"/><polygon class="ao" points="124.2251 234.4868 -5.3032 159.6918 124.2251 84.8969 124.2251 234.4868"/></g><g><line class="aj" x1="102.3404" y1="244.7171" x2="304.5274" y2="244.7171"/><polygon class="am" points="282.6426 319.512 412.1709 244.7171 282.6426 169.922 282.6426 319.512"/></g><g><line class="ah" x1="102.3404" y1="329.7422" x2="304.5274" y2="329.7422"/><polygon class="af" points="124.2251 404.5371 -5.3032 329.7422 124.2251 254.9473 124.2251 404.5371"/></g><g><path class="al" d="M318.4899,212.6607c-43.3359,9.0343-76.1403,43.2135-78.9105,84.7792h51.6686v4.6459c0,5.2638-9.8066,30.9674-42.3226,30.9674h-9.2135l-.0332,96.8181c-.0029,6.9688,5.7132,11.7378,11.7692,11.7378,2.5065,0,5.0703-.8162,7.3125-2.6314l32.7477-26.5146,36.9701,64.0343c-14.9456,9.602-25.7474,21.8301-30.5658,35.5026h136.7695l-66.8447-115.7775c-7.1419-12.3697-2.7201-28.1637,9.7695-35.0971,30.6172-16.9988,49.0606-38.9306,49.0606-62.8731,0-36.8439-139.0329-23.6079-108.1774-85.5916"/><path class="an" d="M341.333,210.3152c-.9229,0-1.8434,.0142-2.7611,.0361-.2731,.0064-.5446,.0193-.8174,.027-.654,.0206-1.3066,.0451-1.9567,.0759-.2962,.0142-.5924,.0334-.8883,.0502-.64,.0361-1.2796,.0759-1.917,.1236-.2728,.0206-.543,.0412-.8161,.0631-.6885,.0566-1.376,.1184-2.0609,.1866-.2087,.0219-.417,.0413-.6257,.0632-.8278,.0875-1.6517,.1828-2.4743,.2883-.0605,.0077-.1221,.0142-.1839,.0232-2.8193,.3656-5.6012,.8368-8.3405,1.4083h-.0013c-30.8555,61.9836,108.1774,48.7476,108.1774,85.5916,0,23.9425-18.4434,45.8744-49.0606,62.8731-12.4896,6.9334-16.9115,22.7274-9.7695,35.0971l66.8447,115.7775h77.318v-17.6567c-7.487-9.1746-17.9206-17.2151-30.5104-23.6014-38.3307-19.4473-70.6445-48.8313-93.7969-84.8899h0c33.0013-15.3678,55.5921-46.6326,55.5921-82.7015,0-51.2708-45.6452-92.8352-101.9518-92.8352"/></g></g><g id="k"/><g id="l"/></g><g id="m"/><g id="n"><g id="o"/><g id="p"/><g id="q"/></g><g id="r"/><g id="s"/><g id="t"/><g id="u"><g id="v"/><g id="w"/><g id="x"/></g><g id="y"/><g id="a`"/><g id="aa"/><g id="ab"><g id="ac"/></g><g id="ad"/><g id="ae"/></svg>