<?xml version="1.0" encoding="UTF-8"?><svg xmlns="http://www.w3.org/2000/svg" xmlns:xlink="http://www.w3.org/1999/xlink" viewBox="0 0 512 512"><defs><style>.af{fill:#a7a9ac;}.ag{fill:url(#l);}.ah{fill:url(#k);}</style><linearGradient id="k" x1="4755.0434" y1="1400.7453" x2="4755.7101" y2="1400.7453" gradientTransform="translate(-2800392.7662 825345.1698) scale(588.9599 -588.9599)" gradientUnits="userSpaceOnUse"><stop offset="0" stop-color="#f7f294"/><stop offset=".1578" stop-color="#f7ed8e"/><stop offset=".3551" stop-color="#f7e07f"/><stop offset=".5736" stop-color="#f7ca65"/><stop offset=".8055" stop-color="#f7ac42"/><stop offset="1" stop-color="#f78e1f"/></linearGradient><linearGradient id="l" x1="4755.0434" y1="1400.7473" x2="4755.7101" y2="1400.7473" gradientTransform="translate(-2800392.7662 825345.1698) scale(588.9599 -588.9599)" gradientUnits="userSpaceOnUse"><stop offset="0" stop-color="#dce11f"/><stop offset=".194" stop-color="#dbdb1f"/><stop offset=".4284" stop-color="#dbcd21"/><stop offset=".6836" stop-color="#dbb424"/><stop offset=".952" stop-color="#db9228"/><stop offset="1" stop-color="#db8c29"/></linearGradient></defs><g id="a"/><g id="b"/><g id="c"/><g id="d"/><g id="e"><g id="f"/><g id="g"/><g id="h"/><g id="i"/><g id="j"><path class="af" d="M125,250.3546c0-16.8289,5.543-32.363,14.9023-44.8768l-30.7727-30.7726-7.071-7.071,7.071-7.0712,83.8169-83.817,10.4773-10.4772c3.5659-3.4188,6.5999-7.3696,10.4482-10.5059,2.2031-1.8093,4.415-3.6039,6.6206-5.4083h-54.6733c-8.7368,0-15.8193,7.0825-15.8193,15.8195v25.2784c0,14.0935-17.0398,21.1517-27.0054,11.186l-17.8745-17.8743c-6.1777-6.178-16.1943-6.178-22.3721,0l-48.3389,48.3389c-6.1777,6.1779-6.1777,16.1942,0,22.3721l17.874,17.8738c9.9656,9.9658,2.9075,27.0056-11.186,27.0056H15.8193c-8.7368,0-15.8193,7.0826-15.8193,15.8195v68.3611c0,8.7368,7.0825,15.8195,15.8193,15.8195h25.2786c14.0935,0,21.1516,17.0398,11.186,27.0055l-17.8748,17.8748c-6.178,6.1779-6.1777,16.1942,0,22.3721l48.3389,48.3389c6.1777,6.1779,16.1943,6.1779,22.3721,0l17.8743-17.8745c8.6448-8.6448,22.6055-4.475,26.1562,5.9805l27.4771-82.431c-29.9727-9.8246-51.6277-38.0087-51.6277-71.2663Z"/><path class="af" d="M384.1807,200.3546h-25.2781c-14.0938,0-21.1519-17.0398-11.1863-27.0056l17.874-17.8738c6.1777-6.1779,6.1777-16.1942,0-22.3721l-48.3389-48.3389c-6.1777-6.1779-16.1943-6.1779-22.3721,0l-17.874,17.8738c-8.3428,8.3428-21.6367,4.7507-25.7476-4.9076l-27.1968,81.5909c29.6143,10.0288,50.939,38.0314,50.939,71.0332,0,17.3809-5.9287,33.3674-15.8518,46.085l30.79,30.79,7.071,7.0712c-20.439,20.314-90.8918,91.0425-110.5857,110.6805-2.1829,1.7946-4.3679,3.5841-6.5532,5.3733h54.3103c8.7368,0,15.8193-7.0826,15.8193-15.8195v-25.2772c0-14.0938,17.0398-21.1519,27.0056-11.186l17.8738,17.8739c6.1777,6.1779,16.1943,6.178,22.3721,.0001l48.3389-48.3389c6.178-6.178,6.178-16.1942,0-22.3721l-17.8748-17.8748c-9.9656-9.9658-2.9075-27.0055,11.1863-27.0055h25.2788c8.7368,0,15.8193-7.0826,15.8193-15.8195v-68.3611c0-8.7369-7.0825-15.8195-15.8193-15.8195Z"/><path class="af" d="M139.9023,205.4778l56.5798,56.5799-19.8545,59.5632c7.3574,2.4117,15.2085,3.7337,23.3723,3.7337,24.0405,0,45.4229-11.3245,59.1482-28.915l-55.595-55.595,20.5078-61.5232c-7.5554-2.5587-15.6414-3.9668-24.061-3.9668-24.5925,0-46.4204,11.8364-60.0977,30.1232Z"/><path class="af" d="M250,66.1741v25.278c0,2.2952,.4583,4.3997,1.2578,6.2784L283.8347,.0001h0c-21.47,16.413-42.4668,33.2764-63.342,50.3545h13.688c8.7368,0,15.8193,7.0825,15.8193,15.8195Z"/><path class="af" d="M150,434.5352v-25.2777c0-1.868-.3066-3.608-.8494-5.2055l-31.9827,95.9481c21.311-16.1215,42.0757-32.7581,62.7024-49.6454h-14.051c-8.7368,0-15.8193-7.0826-15.8193-15.8195Z"/><g><path class="ah" d="M318.4899,212.6607c-43.3359,9.0343-76.1403,43.2135-78.9105,84.7792h51.6686v4.6459c0,5.2638-9.8066,30.9674-42.3226,30.9674h-9.2135l-.0332,96.8181c-.0029,6.9688,5.7132,11.7378,11.7692,11.7378,2.5065,0,5.0703-.8162,7.3125-2.6314l32.7477-26.5146,36.9701,64.0343c-14.9456,9.602-25.7474,21.8301-30.5658,35.5026h136.7695l-66.8447-115.7775c-7.1419-12.3697-2.7201-28.1637,9.7695-35.0971,30.6172-16.9988,49.0606-38.9306,49.0606-62.8731,0-36.8439-139.0329-23.6079-108.1774-85.5916"/><path class="ag" d="M341.333,210.3152c-.9229,0-1.8434,.0142-2.7611,.0361-.2731,.0064-.5446,.0193-.8174,.027-.654,.0206-1.3066,.0451-1.9567,.0759-.2962,.0142-.5924,.0334-.8883,.0502-.64,.0361-1.2796,.0759-1.917,.1236-.2728,.0206-.543,.0412-.8161,.0631-.6885,.0566-1.376,.1184-2.0609,.1866-.2087,.0219-.417,.0413-.6257,.0632-.8278,.0875-1.6517,.1828-2.4743,.2883-.0605,.0077-.1221,.0142-.1839,.0232-2.8193,.3656-5.6012,.8368-8.3405,1.4083h-.0013c-30.8555,61.9836,108.1774,48.7476,108.1774,85.5916,0,23.9425-18.4434,45.8744-49.0606,62.8731-12.4896,6.9334-16.9115,22.7274-9.7695,35.0971l66.8447,115.7775h77.318v-17.6567c-7.487-9.1746-17.9206-17.2151-30.5104-23.6014-38.3307-19.4473-70.6445-48.8313-93.7969-84.8899h0c33.0013-15.3678,55.5921-46.6326,55.5921-82.7015,0-51.2708-45.6452-92.8352-101.9518-92.8352"/></g></g></g><g id="m"/><g id="n"><g id="o"/><g id="p"/><g id="q"/></g><g id="r"/><g id="s"/><g id="t"/><g id="u"><g id="v"/><g id="w"/><g id="x"/></g><g id="y"/><g id="a`"/><g id="aa"/><g id="ab"><g id="ac"/></g><g id="ad"/><g id="ae"/></svg>