<?xml version="1.0" encoding="UTF-8"?><svg xmlns="http://www.w3.org/2000/svg" xmlns:xlink="http://www.w3.org/1999/xlink" viewBox="0 0 512 512"><defs><style>.af{fill:#fff;}.ag{fill:#a7a9ac;}.ah{fill:url(#g);}.ai{fill:url(#h);}.aj{fill:#d1d3d4;}.ak{fill:#bcbec0;}</style><linearGradient id="g" x1="7044.1501" y1="1400.7453" x2="7044.8168" y2="1400.7453" gradientTransform="translate(-4148584.8167 825345.1698) scale(588.9599 -588.9599)" gradientUnits="userSpaceOnUse"><stop offset="0" stop-color="#f7f294"/><stop offset=".1578" stop-color="#f7ed8e"/><stop offset=".3551" stop-color="#f7e07f"/><stop offset=".5736" stop-color="#f7ca65"/><stop offset=".8055" stop-color="#f7ac42"/><stop offset="1" stop-color="#f78e1f"/></linearGradient><linearGradient id="h" x1="7044.1501" y1="1400.7473" x2="7044.8168" y2="1400.7473" gradientTransform="translate(-4148584.8167 825345.1698) scale(588.9599 -588.9599)" gradientUnits="userSpaceOnUse"><stop offset="0" stop-color="#dce11f"/><stop offset=".194" stop-color="#dbdb1f"/><stop offset=".4284" stop-color="#dbcd21"/><stop offset=".6836" stop-color="#dbb424"/><stop offset=".952" stop-color="#db9228"/><stop offset="1" stop-color="#db8c29"/></linearGradient></defs><g id="a"/><g id="b"/><g id="c"/><g id="d"/><g id="e"><g id="f"><path class="ag" d="M384.1805,150h-25.278c-14.0936,0-21.1518-17.0399-11.1861-27.0056l17.8739-17.8738c6.1779-6.1779,6.1779-16.1942,0-22.3721l-48.3389-48.3388c-6.1779-6.1779-16.1942-6.1779-22.3721,0l-17.8739,17.8738c-9.9657,9.9657-27.0055,2.9076-27.0055-11.186V15.8195c0-8.7369-7.0826-15.8195-15.8195-15.8195h-68.3611c-8.7368,0-15.8195,7.0826-15.8195,15.8195v25.2784c0,14.0936-17.0398,21.1518-27.0055,11.1861l-17.8744-17.8743c-6.1779-6.1779-16.1942-6.1779-22.3721,0l-48.3388,48.3388c-6.1779,6.1779-6.1779,16.1943,0,22.3721l17.8739,17.8738c9.9657,9.9657,2.9076,27.0056-11.186,27.0056H15.8195c-8.7368,0-15.8195,7.0826-15.8195,15.8195v68.3611c0,8.7368,7.0826,15.8195,15.8195,15.8195h25.2784c14.0936,0,21.1517,17.0398,11.186,27.0055l-17.8748,17.8748c-6.1779,6.1779-6.1779,16.1942,0,22.3721l48.3388,48.3389c6.1779,6.1779,16.1943,6.1779,22.3721,0l17.8743-17.8745c9.9657-9.9657,27.0056-2.9076,27.0056,11.186v25.2777c0,8.7368,7.0826,15.8195,15.8195,15.8195h68.3611c8.7368,0,15.8195-7.0826,15.8195-15.8195v-25.2772c0-14.0938,17.0399-21.1519,27.0056-11.186l17.8738,17.8739c6.1779,6.1779,16.1942,6.178,22.3721,.0001l48.3388-48.3389c6.1779-6.178,6.1779-16.1942,0-22.3721l-17.8748-17.8748c-9.9656-9.9658-2.9075-27.0055,11.1861-27.0055h25.2788c8.7368,0,15.8195-7.0826,15.8195-15.8195v-68.3611c0-8.7369-7.0826-15.8195-15.8195-15.8195Zm-184.1805,125c-41.4214,0-75-33.5787-75-75s33.5786-75,75-75,75,33.5786,75,75-33.5786,75-75,75Z"/><path class="ak" d="M384.1805,187.3333h-25.278c-14.0936,0-21.1518-17.0399-11.1861-27.0056l17.8739-17.8738c6.1779-6.1779,6.1779-16.1942,0-22.3721l-48.3389-48.3388c-6.1779-6.1779-16.1942-6.1779-22.3721,0l-17.8739,17.8738c-9.9657,9.9657-27.0055,2.9076-27.0055-11.186v-25.278c0-8.7369-7.0826-15.8195-15.8195-15.8195h-68.3611c-8.7368,0-15.8195,7.0826-15.8195,15.8195v25.2784c0,14.0936-17.0398,21.1518-27.0055,11.1861l-17.8744-17.8743c-6.1779-6.1779-16.1942-6.1779-22.3721,0l-48.3388,48.3388c-6.1779,6.1779-6.1779,16.1943,0,22.3721l17.8739,17.8738c9.9657,9.9657,2.9076,27.0056-11.186,27.0056H15.8195c-8.7368,0-15.8195,7.0826-15.8195,15.8195v68.3611c0,8.7368,7.0826,15.8195,15.8195,15.8195h25.2784c14.0936,0,21.1517,17.0398,11.186,27.0055l-17.8748,17.8748c-6.1779,6.1779-6.1779,16.1942,0,22.3721l48.3388,48.3389c6.1779,6.1779,16.1943,6.1779,22.3721,0l17.8743-17.8745c9.9657-9.9657,27.0056-2.9076,27.0056,11.186v25.2777c0,8.7368,7.0826,15.8195,15.8195,15.8195h68.3611c8.7368,0,15.8195-7.0826,15.8195-15.8195v-25.2772c0-14.0938,17.0399-21.1519,27.0056-11.186l17.8738,17.8739c6.1779,6.1779,16.1942,6.178,22.3721,.0001l48.3388-48.3389c6.1779-6.178,6.1779-16.1942,0-22.3721l-17.8748-17.8748c-9.9656-9.9658-2.9075-27.0055,11.1861-27.0055h25.2788c8.7368,0,15.8195-7.0826,15.8195-15.8195v-68.3611c0-8.7369-7.0826-15.8195-15.8195-15.8195Zm-184.1805,125c-41.4214,0-75-33.5787-75-75s33.5786-75,75-75,75,33.5786,75,75-33.5786,75-75,75Z"/><path class="aj" d="M384.1805,224.6667h-25.278c-14.0936,0-21.1518-17.0399-11.1861-27.0056l17.8739-17.8738c6.1779-6.1779,6.1779-16.1942,0-22.3721l-48.3389-48.3388c-6.1779-6.1779-16.1942-6.1779-22.3721,0l-17.8739,17.8738c-9.9657,9.9657-27.0055,2.9076-27.0055-11.186v-25.278c0-8.7369-7.0826-15.8195-15.8195-15.8195h-68.3611c-8.7368,0-15.8195,7.0826-15.8195,15.8195v25.2784c0,14.0936-17.0398,21.1518-27.0055,11.1861l-17.8744-17.8743c-6.1779-6.1779-16.1942-6.1779-22.3721,0l-48.3388,48.3388c-6.1779,6.1779-6.1779,16.1943,0,22.3721l17.8739,17.8738c9.9657,9.9657,2.9076,27.0056-11.186,27.0056H15.8195c-8.7368,0-15.8195,7.0826-15.8195,15.8195v68.3611c0,8.7368,7.0826,15.8195,15.8195,15.8195h25.2784c14.0936,0,21.1517,17.0398,11.186,27.0055l-17.8748,17.8748c-6.1779,6.1779-6.1779,16.1942,0,22.3721l48.3388,48.3389c6.1779,6.1779,16.1943,6.1779,22.3721,0l17.8743-17.8745c9.9657-9.9657,27.0056-2.9076,27.0056,11.186v25.2777c0,8.7368,7.0826,15.8195,15.8195,15.8195h68.3611c8.7368,0,15.8195-7.0826,15.8195-15.8195v-25.2772c0-14.0938,17.0399-21.1519,27.0056-11.186l17.8738,17.8739c6.1779,6.1779,16.1942,6.178,22.3721,.0001l48.3388-48.3389c6.1779-6.178,6.1779-16.1942,0-22.3721l-17.8748-17.8748c-9.9656-9.9658-2.9075-27.0055,11.1861-27.0055h25.2788c8.7368,0,15.8195-7.0826,15.8195-15.8195v-68.3611c0-8.7369-7.0826-15.8195-15.8195-15.8195Zm-184.1805,125c-41.4214,0-75-33.5787-75-75s33.5786-75,75-75,75,33.5786,75,75-33.5786,75-75,75Z"/><path class="af" d="M384.1805,262h-25.278c-14.0936,0-21.1518-17.0399-11.1861-27.0056l17.8739-17.8738c6.1779-6.1779,6.1779-16.1942,0-22.3721l-48.3389-48.3388c-6.1779-6.1779-16.1942-6.1779-22.3721,0l-17.8739,17.8738c-9.9657,9.9657-27.0055,2.9076-27.0055-11.186v-25.278c0-8.7369-7.0826-15.8195-15.8195-15.8195h-68.3611c-8.7368,0-15.8195,7.0826-15.8195,15.8195v25.2784c0,14.0936-17.0398,21.1518-27.0055,11.1861l-17.8744-17.8743c-6.1779-6.1779-16.1942-6.1779-22.3721,0l-48.3388,48.3388c-6.1779,6.1779-6.1779,16.1943,0,22.3721l17.8739,17.8738c9.9657,9.9657,2.9076,27.0056-11.186,27.0056H15.8195c-8.7368,0-15.8195,7.0826-15.8195,15.8195v68.3611c0,8.7368,7.0826,15.8195,15.8195,15.8195h25.2784c14.0936,0,21.1517,17.0398,11.186,27.0055l-17.8748,17.8748c-6.1779,6.1779-6.1779,16.1942,0,22.3721l48.3388,48.3389c6.1779,6.1779,16.1943,6.1779,22.3721,0l17.8743-17.8745c9.9657-9.9657,27.0056-2.9076,27.0056,11.186v25.2777c0,8.7368,7.0826,15.8195,15.8195,15.8195h68.3611c8.7368,0,15.8195-7.0826,15.8195-15.8195v-25.2772c0-14.0938,17.0399-21.1519,27.0056-11.186l17.8738,17.8739c6.1779,6.1779,16.1942,6.178,22.3721,.0001l48.3388-48.3389c6.1779-6.178,6.1779-16.1942,0-22.3721l-17.8748-17.8748c-9.9656-9.9658-2.9075-27.0055,11.1861-27.0055h25.2788c8.7368,0,15.8195-7.0826,15.8195-15.8195v-68.3611c0-8.7369-7.0826-15.8195-15.8195-15.8195Zm-184.1805,125c-41.4214,0-75-33.5787-75-75s33.5786-75,75-75,75,33.5786,75,75-33.5786,75-75,75Z"/><g><path class="ah" d="M318.4899,212.6607c-43.3359,9.0343-76.1403,43.2135-78.9105,84.7792h51.6686v4.6459c0,5.2638-9.8066,30.9674-42.3226,30.9674h-9.2135l-.0332,96.8181c-.0029,6.9688,5.7132,11.7378,11.7692,11.7378,2.5065,0,5.0703-.8162,7.3125-2.6314l32.7477-26.5146,36.9701,64.0343c-14.9456,9.602-25.7474,21.8301-30.5658,35.5026h136.7695l-66.8447-115.7775c-7.1419-12.3697-2.7201-28.1637,9.7695-35.0971,30.6172-16.9988,49.0606-38.9306,49.0606-62.8731,0-36.8439-139.0329-23.6079-108.1774-85.5916"/><path class="ai" d="M341.333,210.3152c-.9229,0-1.8434,.0142-2.7611,.0361-.2731,.0064-.5446,.0193-.8174,.027-.654,.0206-1.3066,.0451-1.9567,.0759-.2962,.0142-.5924,.0334-.8883,.0502-.64,.0361-1.2796,.0759-1.917,.1236-.2728,.0206-.543,.0412-.8161,.0631-.6885,.0566-1.376,.1184-2.0609,.1866-.2087,.0219-.417,.0413-.6257,.0632-.8278,.0875-1.6517,.1828-2.4743,.2883-.0605,.0077-.1221,.0142-.1839,.0232-2.8193,.3656-5.6012,.8368-8.3405,1.4083h-.0013c-30.8555,61.9836,108.1774,48.7476,108.1774,85.5916,0,23.9425-18.4434,45.8744-49.0606,62.8731-12.4896,6.9334-16.9115,22.7274-9.7695,35.0971l66.8447,115.7775h77.318v-17.6567c-7.487-9.1746-17.9206-17.2151-30.5104-23.6014-38.3307-19.4473-70.6445-48.8313-93.7969-84.8899h0c33.0013-15.3678,55.5921-46.6326,55.5921-82.7015,0-51.2708-45.6452-92.8352-101.9518-92.8352"/></g></g><g id="i"/><g id="j"/><g id="k"/><g id="l"/></g><g id="m"/><g id="n"><g id="o"/><g id="p"/><g id="q"/></g><g id="r"/><g id="s"/><g id="t"/><g id="u"><g id="v"/><g id="w"/><g id="x"/></g><g id="y"/><g id="a`"/><g id="aa"/><g id="ab"><g id="ac"/></g><g id="ad"/><g id="ae"/></svg>