<?xml version="1.0" encoding="UTF-8"?><svg xmlns="http://www.w3.org/2000/svg" xmlns:xlink="http://www.w3.org/1999/xlink" viewBox="0 0 512 512"><defs><style>.af{fill:#fff;}.ag{fill:#bcbdc0;}.ah{fill:#a7a9ac;}.ai{fill:none;stroke:#a7a9ac;stroke-miterlimit:10;stroke-width:25px;}.aj{fill:#d1d3d4;}.ak{fill:url(#j);}.al{fill:url(#k);}</style><linearGradient id="j" x1="5498.387" y1="1400.7453" x2="5499.0537" y2="1400.7453" gradientTransform="translate(-3238192.3191 825345.1698) scale(588.9599 -588.9599)" gradientUnits="userSpaceOnUse"><stop offset="0" stop-color="#f7f294"/><stop offset=".1578" stop-color="#f7ed8e"/><stop offset=".3551" stop-color="#f7e07f"/><stop offset=".5736" stop-color="#f7ca65"/><stop offset=".8055" stop-color="#f7ac42"/><stop offset="1" stop-color="#f78e1f"/></linearGradient><linearGradient id="k" x1="5498.387" y1="1400.7473" x2="5499.0537" y2="1400.7473" gradientTransform="translate(-3238192.3191 825345.1698) scale(588.9599 -588.9599)" gradientUnits="userSpaceOnUse"><stop offset="0" stop-color="#dce11f"/><stop offset=".194" stop-color="#dbdb1f"/><stop offset=".4284" stop-color="#dbcd21"/><stop offset=".6836" stop-color="#dbb424"/><stop offset=".952" stop-color="#db9228"/><stop offset="1" stop-color="#db8c29"/></linearGradient></defs><g id="a"/><g id="b"/><g id="c"/><g id="d"/><g id="e"><g id="f"/><g id="g"/><g id="h"/><g id="i"><path class="ag" d="M277.0889,31.0885h-13.3961c0-17.0987-13.9897-31.0885-31.0881-31.0885h-85.9428c-17.0984,0-31.0887,13.9898-31.0887,31.0885h-13.3956C45.8364,31.0885,0,76.9252,0,133.2661l57.1343,.361v211.9436c0,56.3409,45.837,102.1777,102.1776,102.1777h60.6422c56.3406,0,102.1776-45.8368,102.1776-102.1777V132.4527l57.1348,.8135c0-56.3409-45.8364-102.1776-102.1776-102.1776Zm-47.9772,19.2291h-78.9569c-10.5758,0-19.2288-8.6531-19.2288-19.2291s8.653-19.2291,19.2288-19.2291h78.9569c10.5758,0,19.2288,8.6531,19.2288,19.2291s-8.653,19.2291-19.2288,19.2291Z"/><line class="ai" x1="118.0587" y1="406.7911" x2="118.0587" y2="132.4531"/><line class="ai" x1="189.6332" y1="406.7911" x2="189.6332" y2="132.4531"/><line class="ai" x1="261.2077" y1="406.7911" x2="261.2077" y2="132.4531"/><g><path class="aj" d="M209.8492,464.3157H104.495c-14.7994,0-26.7967-11.9973-26.7967-26.7967v-168.9332c0-14.7994,11.9973-26.7967,26.7967-26.7967h66.1409l66.01,66.01v129.7199c0,14.7994-11.9973,26.7967-26.7967,26.7967Z"/><path class="ah" d="M104.4949,273.5786c2.7559-1.8695,5.5117-3.3047,8.2676-4.6071,2.7559,.1,5.5117,.0277,8.2676,.05,8.2461,.002,24.8277-.0015,33.0708,0h8.2675c2.7629,1.3306,5.6741,2.8649,8.2676,4.557-2.5935,1.6926-5.5053,3.226-8.2676,4.5572h-8.2676c-8.2395-.002-24.8325,.0014-33.0708,0-2.7558,.0223-5.5117-.05-8.2675,.0501-2.7559-1.3024-5.5117-2.7377-8.2676-4.6072h0Z"/><path class="ah" d="M104.4949,305.3682c3.8032-1.8695,7.6064-3.3047,11.4092-4.6072,3.8032,.1001,7.6064,.0278,11.4092,.0502,11.3794,.002,34.2614-.0015,45.6368,0h11.4091c3.783,1.3213,7.7637,2.8352,11.4092,4.557-3.6461,1.7221-7.6268,3.2353-11.4092,4.557h-11.4092c-11.3702-.002-34.2681,.0014-45.6368,0-3.8027,.0223-7.6059-.0499-11.4091,.0502-3.8027-1.3025-7.606-2.7377-11.4092-4.6072h0Z"/><path class="ah" d="M104.4949,337.1577c4.6074-1.8696,9.2144-3.3048,13.8218-4.6072,4.6069,.1001,9.2139,.0277,13.8213,.05,13.7853,.002,41.5053-.0015,55.2857,0h13.8212c4.5691,1.3179,9.3708,2.8229,13.8218,4.5571-4.452,1.7343-9.2534,3.2388-13.8218,4.557h-13.8213c-13.7742-.002-41.5133,.0014-55.2857,0-4.6074,.0223-9.2143-.0499-13.8212,.0501-4.6074-1.3024-9.2144-2.7375-13.8218-4.6071h0Z"/><path class="ah" d="M104.4949,368.9472c4.6074-1.8695,9.2144-3.3047,13.8218-4.6071,4.6069,.1,9.2139,.0277,13.8213,.05,13.7853,.002,41.5053-.0015,55.2857,0h13.8212c4.5691,1.3177,9.3708,2.8231,13.8218,4.557-4.4519,1.7345-9.2534,3.2388-13.8218,4.5572h-13.8213c-13.7742-.002-41.5133,.0014-55.2857,0-4.6074,.0223-9.2143-.05-13.8212,.0501-4.6074-1.3024-9.2144-2.7377-13.8218-4.6072h0Z"/><path class="ah" d="M104.4949,400.7367c4.6074-1.8695,9.2144-3.3047,13.8218-4.6071,4.6069,.1,9.2139,.0277,13.8213,.05,13.7853,.002,41.5053-.0015,55.2857,0h13.8212c4.5691,1.3178,9.3708,2.823,13.8218,4.557-4.452,1.7344-9.2534,3.2389-13.8218,4.5571h-13.8213c-13.7742-.002-41.5133,.0014-55.2857,0-4.6074,.0223-9.2143-.05-13.8212,.0501-4.6074-1.3024-9.2144-2.7376-13.8218-4.6071h0Z"/><path class="ah" d="M104.4949,432.5262c4.6074-1.8695,9.2144-3.3047,13.8218-4.6071,4.6069,.1,9.2139,.0277,13.8213,.05,13.7853,.002,41.5053-.0015,55.2857,0h13.8212c4.5691,1.3178,9.3708,2.823,13.8218,4.557-4.4519,1.7344-9.2534,3.2389-13.8218,4.5571h-13.8213c-13.7742-.002-41.5133,.0014-55.2857,0-4.6074,.0223-9.2143-.05-13.8212,.0501-4.6074-1.3024-9.2144-2.7375-13.8218-4.6071h0Z"/></g><g><path class="af" d="M151.9549,512H46.6007c-14.7994,0-26.7967-11.9973-26.7967-26.7967v-168.9332c0-14.7994,11.9973-26.7967,26.7967-26.7967H112.7416l66.01,66.01v129.7199c0,14.7994-11.9973,26.7967-26.7967,26.7967Z"/><path class="ah" d="M46.6008,321.263c2.7559-1.8695,5.5117-3.3048,8.2676-4.6072,2.7559,.1001,5.5117,.0277,8.2676,.05,8.246,.002,24.8273-.0015,33.0704,0h8.2675c2.7629,1.3308,5.6741,2.8649,8.2676,4.5571-2.5935,1.6924-5.5053,3.2262-8.2676,4.557h-8.2676c-8.2393-.002-24.8321,.0014-33.0703,0-2.7558,.0223-5.5117-.0499-8.2675,.0501-2.7559-1.3024-5.5117-2.7375-8.2676-4.6071h0Z"/><path class="ah" d="M46.6008,353.0524c3.8027-1.8695,7.606-3.3047,11.4092-4.6071,3.8027,.1001,7.606,.0277,11.4092,.05,11.3794,.002,34.2614-.0015,45.6368,0h11.4091c3.7829,1.3213,7.7633,2.8356,11.4092,4.557-3.6464,1.722-7.627,3.2353-11.4092,4.5572h-11.4092c-11.3702-.002-34.2681,.0014-45.6368,0-3.8032,.0223-7.6064-.05-11.4091,.0501-3.8032-1.3024-7.6064-2.7375-11.4092-4.6072h0Z"/><path class="ah" d="M46.6008,384.8419c4.6069-1.8695,9.2144-3.3047,13.8213-4.6071,4.6074,.1,9.2144,.0277,13.8213,.05,13.7853,.002,41.5053-.0015,55.2857,0h13.8217c4.5681,1.3177,9.3708,2.8231,13.8213,4.557-4.4514,1.7344-9.2539,3.239-13.8213,4.5571h-13.8218c-13.7742-.002-41.5133,.0014-55.2857,0-4.6069,.0223-9.2138-.05-13.8212,.0501-4.6069-1.3024-9.2144-2.7375-13.8213-4.6071h0Z"/><path class="ah" d="M46.6008,416.6315c4.6069-1.8696,9.2144-3.3047,13.8213-4.6072,4.6074,.1001,9.2144,.0278,13.8213,.0501,13.7853,.002,41.5053-.0015,55.2857,0h13.8217c4.5681,1.3176,9.3708,2.823,13.8213,4.557-4.4515,1.7343-9.2538,3.239-13.8213,4.557h-13.8218c-13.7742-.002-41.5133,.0014-55.2857,0-4.6069,.0223-9.2138-.05-13.8212,.0501-4.6069-1.3024-9.2144-2.7376-13.8213-4.6071h0Z"/><path class="ah" d="M46.6008,448.421c4.6069-1.8695,9.2144-3.3047,13.8213-4.6071,4.6074,.1,9.2144,.0277,13.8213,.05,13.7853,.002,41.5053-.0015,55.2857,0h13.8217c4.5681,1.3176,9.3708,2.823,13.8213,4.557-4.4515,1.7343-9.2539,3.2389-13.8213,4.5571h-13.8218c-13.7742-.002-41.5133,.0014-55.2857,0-4.6069,.0223-9.2138-.05-13.8212,.0501-4.6069-1.3024-9.2144-2.7376-13.8213-4.6071h0Z"/><path class="ah" d="M46.6008,480.2105c4.6069-1.8695,9.2144-3.3047,13.8213-4.6071,4.6074,.1,9.2144,.0277,13.8213,.05,13.7853,.002,41.5053-.0015,55.2857,0h13.8217c4.5681,1.3177,9.3708,2.8231,13.8213,4.557-4.4514,1.7344-9.2539,3.239-13.8213,4.5571h-13.8218c-13.7742-.002-41.5133,.0014-55.2857,0-4.6069,.0223-9.2138-.05-13.8212,.0501-4.6069-1.3024-9.2144-2.7375-13.8213-4.6071h0Z"/></g><path class="ah" d="M.0325,131.7899c103.3061-28.5436,275.2877-28.3683,378.7622-.0009v2.5009c-93.0742,1.3349-191.0617,1.4385-284.0713,.9615-23.5434-.1183-71.1392-.5955-94.6909-.9616v-2.4999h0Z"/><g><path class="ak" d="M318.4899,212.6607c-43.3359,9.0343-76.1403,43.2135-78.9105,84.7792h51.6686v4.6459c0,5.2638-9.8066,30.9674-42.3226,30.9674h-9.2135l-.0332,96.8181c-.0029,6.9688,5.7132,11.7378,11.7692,11.7378,2.5065,0,5.0703-.8162,7.3125-2.6314l32.7477-26.5146,36.9701,64.0343c-14.9456,9.602-25.7474,21.8301-30.5658,35.5026h136.7695l-66.8447-115.7775c-7.1419-12.3697-2.7201-28.1637,9.7695-35.0971,30.6172-16.9988,49.0606-38.9306,49.0606-62.8731,0-36.8439-139.0329-23.6079-108.1774-85.5916"/><path class="al" d="M341.333,210.3152c-.9229,0-1.8434,.0142-2.7611,.0361-.2731,.0064-.5446,.0193-.8174,.027-.654,.0206-1.3066,.0451-1.9567,.0759-.2962,.0142-.5924,.0334-.8883,.0502-.64,.0361-1.2796,.0759-1.917,.1236-.2728,.0206-.543,.0412-.8161,.0631-.6885,.0566-1.376,.1184-2.0609,.1866-.2087,.0219-.417,.0413-.6257,.0632-.8278,.0875-1.6517,.1828-2.4743,.2883-.0605,.0077-.1221,.0142-.1839,.0232-2.8193,.3656-5.6012,.8368-8.3405,1.4083h-.0013c-30.8555,61.9836,108.1774,48.7476,108.1774,85.5916,0,23.9425-18.4434,45.8744-49.0606,62.8731-12.4896,6.9334-16.9115,22.7274-9.7695,35.0971l66.8447,115.7775h77.318v-17.6567c-7.487-9.1746-17.9206-17.2151-30.5104-23.6014-38.3307-19.4473-70.6445-48.8313-93.7969-84.8899h0c33.0013-15.3678,55.5921-46.6326,55.5921-82.7015,0-51.2708-45.6452-92.8352-101.9518-92.8352"/></g></g><g id="l"/></g><g id="m"/><g id="n"><g id="o"/><g id="p"/><g id="q"/></g><g id="r"/><g id="s"/><g id="t"/><g id="u"><g id="v"/><g id="w"/><g id="x"/></g><g id="y"/><g id="a`"/><g id="aa"/><g id="ab"><g id="ac"/></g><g id="ad"/><g id="ae"/></svg>