<?xml version="1.0" encoding="UTF-8"?><svg xmlns="http://www.w3.org/2000/svg" xmlns:xlink="http://www.w3.org/1999/xlink" viewBox="0 0 512 512"><defs><style>.af{fill:url(#d);}.ag{fill:url(#e);}</style><linearGradient id="d" x1="7816.7135" y1="-194.0852" x2="7817.7135" y2="-194.0852" gradientTransform="translate(-4603781.0655 -114020.9115) scale(588.9599 -588.9599)" gradientUnits="userSpaceOnUse"><stop offset="0" stop-color="#71c274"/><stop offset=".1884" stop-color="#72c379"/><stop offset=".4241" stop-color="#78c688"/><stop offset=".6848" stop-color="#81cba2"/><stop offset=".9619" stop-color="#8ed1c5"/><stop offset="1" stop-color="#90d3cb"/></linearGradient><linearGradient id="e" x1="7816.7135" y1="-194.0822" x2="7817.7135" y2="-194.0822" gradientTransform="translate(-4603781.0655 -114020.9115) scale(588.9599 -588.9599)" gradientUnits="userSpaceOnUse"><stop offset="0" stop-color="#00ab74"/><stop offset=".2086" stop-color="#00ab79"/><stop offset=".4722" stop-color="#00ac89"/><stop offset=".7641" stop-color="#00aea2"/><stop offset="1" stop-color="#00b1bd"/></linearGradient></defs><g id="a"/><g id="b"/><g id="c"><g><path class="af" d="M221.735,62.9917c-65.0039,13.5515-114.2104,64.8203-118.3657,127.1689h77.5029v6.9688c0,7.8957-14.71,46.4511-63.4839,46.4511h-13.8203l-.0498,145.2271c-.0044,10.4546,8.5688,17.607,17.6528,17.607,3.7598,0,7.6064-1.2247,10.9697-3.9474l49.1216-39.7719,55.4551,96.0515c-22.4185,14.403-38.6211,32.7451-45.8486,53.2538h205.1543l-100.2671-173.6663c-10.7129-18.5545-4.0801-42.2454,14.6543-52.6455,45.9258-25.4983,73.5908-58.396,73.5908-94.3098,0-55.2659-208.5493-35.4118-162.2661-128.3873"/><path class="ag" d="M255.9996,59.4735c-1.3843,0-2.7651,.0212-4.1416,.0541-.4097,.0097-.8169,.029-1.2261,.0406-.981,.0309-1.96,.0676-2.9351,.1139-.4443,.0232-.8887,.0502-1.3325,.0753-.96,.0541-1.9194,.1139-2.8755,.1854-.4092,.0309-.8145,.0618-1.2241,.0946-1.0327,.085-2.064,.1776-3.0913,.28-.313,.0328-.6255,.0618-.9385,.0946-1.2417,.1313-2.4775,.2742-3.7114,.4325-.0908,.0116-.1831,.0232-.2759,.0347-4.229,.5484-8.4019,1.2551-12.5107,2.1125h-.002c-46.2832,92.9755,162.2661,73.1214,162.2661,128.3873,0,35.9138-27.665,68.8115-73.5908,94.3098-18.7344,10.4001-25.3672,34.091-14.6543,52.6455l100.2671,173.6663h115.9771v-26.485c-11.2305-13.762-26.8809-25.8227-45.7656-35.4022-57.4961-29.171-105.9668-73.2469-140.6953-127.333h0c49.502-23.0536,83.3882-69.9508,83.3882-124.0542,0-76.9061-68.4678-139.2528-152.9277-139.2528"/></g></g><g id="f"/><g id="g"><g id="h"/><g id="i"/><g id="j"/><g id="k"/><g id="l"/></g><g id="m"/><g id="n"><g id="o"/><g id="p"/><g id="q"/></g><g id="r"/><g id="s"/><g id="t"/><g id="u"><g id="v"/><g id="w"/><g id="x"/></g><g id="y"/><g id="a`"/><g id="aa"/><g id="ab"><g id="ac"/></g><g id="ad"/><g id="ae"/></svg>