<?xml version="1.0" encoding="UTF-8"?><svg xmlns="http://www.w3.org/2000/svg" xmlns:xlink="http://www.w3.org/1999/xlink" viewBox="0 0 512 512"><defs><style>.af{fill:#fff;}.ag{fill:#a7a9ac;}.ah{fill:url(#x);}.ai{fill:url(#w);}.aj{fill:#e6e7e8;}</style><linearGradient id="w" x1="5498.387" y1="4590.6606" x2="5499.0537" y2="4590.6606" gradientTransform="translate(-3238194.3316 2704079.0137) scale(588.9603 -588.9603)" gradientUnits="userSpaceOnUse"><stop offset="0" stop-color="#df4097"/><stop offset=".1853" stop-color="#d93d94"/><stop offset=".4187" stop-color="#c9358d"/><stop offset=".6779" stop-color="#b02882"/><stop offset=".9538" stop-color="#8c1672"/><stop offset="1" stop-color="#86136f"/></linearGradient><linearGradient id="x" x1="5498.387" y1="4590.6626" x2="5499.0537" y2="4590.6626" gradientTransform="translate(-3238194.3316 2704079.0137) scale(588.9603 -588.9603)" gradientUnits="userSpaceOnUse"><stop offset="0" stop-color="#912288"/><stop offset=".2627" stop-color="#8b2185"/><stop offset=".59" stop-color="#7c1e7c"/><stop offset=".9502" stop-color="#63196f"/><stop offset="1" stop-color="#5f196d"/></linearGradient></defs><g id="a"/><g id="b"/><g id="c"/><g id="d"/><g id="e"><g id="f"/><g id="g"/><g id="h"/><g id="i"/><g id="j"/></g><g id="k"/><g id="l"><g id="m"/><g id="n"/><g id="o"/></g><g id="p"/><g id="q"/><g id="r"/><g id="s"><g id="t"/><g id="u"/><g id="v"><rect class="aj" x="113.6771" y="113.6772" width="129.5226" height="129.5226"/><rect class="ag" x="113.6774" y="382.4772" width="129.5226" height="129.5226"/><rect class="ag" x="465.6702" y="454.6917" width="46.3298" height="57.3083" transform="translate(977.6703 966.6917) rotate(180)"/><path class="aj" d="M125.1973,511.9997c65.1711,0,118.0027-52.8316,118.0027-118.0027v-125.197H-.0003v243.1997H125.1973Z"/><path class="af" d="M125.1976,243.1997c65.1711,0,118.0027-52.8316,118.0027-118.0027V0H0V243.1997H125.1976Z"/><rect class="aj" x="0" y="0" width="243.1997" height="44.8"/><rect class="ag" x="-.0003" y="268.8" width="243.1997" height="44.8"/><rect class="aj" x="382.4771" y="113.6772" width="129.5226" height="129.5226"/><rect class="ag" x="382.4774" y="382.4772" width="129.5226" height="129.5226"/><path class="aj" d="M393.9973,511.9997c65.1711,0,118.0027-52.8316,118.0027-118.0027v-125.197h-243.2002v243.1997h125.1976Z"/><path class="af" d="M393.9976,243.1997c65.1711,0,118.0027-52.8316,118.0027-118.0027V0h-243.2002V243.1997h125.1976Z"/><rect class="ag" x="268.7997" y="268.8" width="243.1997" height="44.8"/><rect class="aj" x="268.8" y="0" width="243.1997" height="44.8"/><g><path class="ai" d="M318.4899,212.6605c-43.3359,9.0342-76.1403,43.2135-78.9118,84.7793h51.6699v4.6458c0,5.2637-9.8066,30.9674-42.3226,30.9674h-9.2135l-.0332,96.8167c-.0029,6.9697,5.7135,11.7386,11.7695,11.7386,2.5065,0,5.07-.8161,7.3122-2.6309l32.7477-26.5146,36.97,64.0345c-14.9456,9.6019-25.7474,21.8301-30.5657,35.5024h136.7695l-66.8447-115.7775c-7.1419-12.3711-2.7201-28.1637,9.7695-35.097,30.6159-16.999,49.0605-38.9307,49.0605-62.8734,0-36.8437-139.0328-23.6077-108.1774-85.5914"/><path class="ah" d="M341.333,210.3151c-.9229,0-1.8434,.014-2.7611,.0361-.2731,.0062-.5446,.0192-.8174,.027-.654,.0205-1.3066,.0436-1.9567,.0758-.2962,.014-.5924,.0335-.8883,.0488-.64,.0374-1.2796,.0771-1.917,.125-.2728,.0192-.5443,.041-.8161,.0632-.6885,.0566-1.376,.1182-2.0609,.1865-.2087,.0205-.417,.0413-.6257,.0632-.8278,.0876-1.6517,.1826-2.4743,.2884-.0605,.0075-.1221,.014-.1839,.0231-2.8193,.3656-5.6012,.8366-8.3405,1.4082h-.0013c-30.8555,61.9837,108.1774,48.7477,108.1774,85.5914,0,23.9427-18.4447,45.8743-49.0605,62.8734-12.4896,6.9333-16.9115,22.7259-9.7695,35.097l66.8447,115.7775h77.318v-17.658c-7.487-9.1732-17.9206-17.2139-30.5104-23.5999-38.3307-19.4476-70.6445-48.8314-93.7968-84.89h0c33.0013-15.3678,55.5921-46.6328,55.5921-82.7028,0-51.2708-45.6452-92.834-101.9518-92.834"/></g></g></g><g id="y"/><g id="a`"/><g id="aa"/><g id="ab"><g id="ac"/></g><g id="ad"/><g id="ae"/></svg>