<?xml version="1.0" encoding="UTF-8"?><svg xmlns="http://www.w3.org/2000/svg" xmlns:xlink="http://www.w3.org/1999/xlink" viewBox="0 0 512 512"><defs><style>.af{fill:#fff;}.ag{fill:#a7a9ac;}.ah{fill:url(#u);}.ai{fill:url(#v);}.aj{fill:#d1d3d4;}.ak{fill:#bcbec0;}</style><linearGradient id="u" x1="7044.1501" y1="4590.6606" x2="7044.8168" y2="4590.6606" gradientTransform="translate(-4148587.3962 2704079.0137) scale(588.9603 -588.9603)" gradientUnits="userSpaceOnUse"><stop offset="0" stop-color="#df4097"/><stop offset=".1853" stop-color="#d93d94"/><stop offset=".4187" stop-color="#c9358d"/><stop offset=".6779" stop-color="#b02882"/><stop offset=".9538" stop-color="#8c1672"/><stop offset="1" stop-color="#86136f"/></linearGradient><linearGradient id="v" x1="7044.1501" y1="4590.6626" x2="7044.8168" y2="4590.6626" gradientTransform="translate(-4148587.3962 2704079.0137) scale(588.9603 -588.9603)" gradientUnits="userSpaceOnUse"><stop offset="0" stop-color="#912288"/><stop offset=".2627" stop-color="#8b2185"/><stop offset=".59" stop-color="#7c1e7c"/><stop offset=".9502" stop-color="#63196f"/><stop offset="1" stop-color="#5f196d"/></linearGradient></defs><g id="a"/><g id="b"/><g id="c"/><g id="d"/><g id="e"><g id="f"/><g id="g"/><g id="h"/><g id="i"/><g id="j"/></g><g id="k"/><g id="l"><g id="m"/><g id="n"/><g id="o"/></g><g id="p"/><g id="q"/><g id="r"/><g id="s"><g id="t"><path class="ag" d="M202.0907,512h-.0004C90.6218,512,.2588,442.4564,.2588,356.67H.2588c0-85.7864,90.363-155.33,201.8315-155.33h.0004c111.4685,0,201.8315,69.5436,201.8315,155.33h0c0,85.7864-90.363,155.33-201.8315,155.33Z"/><path class="ak" d="M202.0907,444.8867h-.0004C90.6218,444.8867,.2588,375.3431,.2588,289.5567H.2588C.2588,203.7703,90.6218,134.2267,202.0903,134.2267h.0004c111.4685,0,201.8315,69.5436,201.8315,155.33h0c0,85.7864-90.363,155.33-201.8315,155.33Z"/><path class="aj" d="M202.0907,377.7733h-.0004C90.6218,377.7733,.2588,308.2297,.2588,222.4433H.2588C.2588,136.6569,90.6218,67.1133,202.0903,67.1133h.0004c111.4685,0,201.8315,69.5436,201.8315,155.33h0c0,85.7864-90.363,155.33-201.8315,155.33Z"/><path class="af" d="M202.0907,310.66h-.0004C90.6218,310.66,.2588,241.1164,.2588,155.33H.2588C.2588,69.5436,90.6218,0,202.0903,0h.0004c111.4685,0,201.8315,69.5436,201.8315,155.33h0c0,85.7864-90.363,155.33-201.8315,155.33Z"/><path class="ak" d="M290.8725,206.7434h0c0-45.7442-37.0829-82.8272-82.8271-82.8272h-22.0971v-20.8036c0-23.7045-18.2067-43.9462-41.8751-45.2525-20.7178-1.1434-13.5246,1.4663-44.6518,10.0184-12.8096,4.6901-26.4683-.1881-26.4683,9.8144,0,9.4157,12.1066,28.7017,24.2133,33.4095v37.027c0,35.6603,28.9084,64.5687,64.5687,64.5687h0c0,17.8307,14.4537,32.2844,32.2844,32.2844v-32.2844h50.1288c-15.825,9.1187-25.9155,24.7323-25.9155,40.3555h32.2844c8.0711,0,24.2133-8.0711,24.2133-16.1422,0,8.0711,16.1422,16.1422,24.2133,16.1422h32.2844c0-19.9679-16.4747-39.922-40.3555-46.3103Z"/><g><path class="ah" d="M318.49,212.6616c-43.3359,9.0342-76.1403,43.2135-78.9118,84.7793h51.6699v4.6458c0,5.2637-9.8066,30.9674-42.3226,30.9674h-9.2135l-.0332,96.8167c-.0029,6.9697,5.7135,11.7386,11.7695,11.7386,2.5065,0,5.07-.8161,7.3122-2.6309l32.7477-26.5146,36.97,64.0345c-14.9456,9.6019-25.7474,21.8301-30.5657,35.5024h136.7695l-66.8447-115.7775c-7.1419-12.3711-2.7201-28.1637,9.7695-35.097,30.6159-16.999,49.0605-38.9307,49.0605-62.8734,0-36.8437-139.0328-23.6077-108.1774-85.5914"/><path class="ai" d="M341.3331,210.3162c-.9229,0-1.8434,.014-2.7611,.0361-.2731,.0062-.5446,.0192-.8174,.027-.654,.0205-1.3066,.0436-1.9567,.0758-.2962,.014-.5924,.0335-.8883,.0488-.64,.0374-1.2796,.0771-1.917,.125-.2728,.0192-.5443,.041-.8161,.0632-.6885,.0566-1.376,.1182-2.0609,.1865-.2087,.0205-.417,.0413-.6257,.0632-.8278,.0876-1.6517,.1826-2.4743,.2884-.0605,.0075-.1221,.014-.1839,.0231-2.8193,.3656-5.6012,.8366-8.3405,1.4082h-.0013c-30.8555,61.9837,108.1774,48.7477,108.1774,85.5914,0,23.9427-18.4447,45.8743-49.0605,62.8734-12.4896,6.9333-16.9115,22.7259-9.7695,35.097l66.8447,115.7775h77.318v-17.658c-7.487-9.1732-17.9206-17.2139-30.5104-23.5999-38.3307-19.4476-70.6445-48.8314-93.7968-84.89h0c33.0013-15.3678,55.5921-46.6328,55.5921-82.7028,0-51.2708-45.6452-92.834-101.9518-92.834"/></g></g><g id="w"/><g id="x"/></g><g id="y"/><g id="a`"/><g id="aa"/><g id="ab"><g id="ac"/></g><g id="ad"/><g id="ae"/></svg>