<?xml version="1.0" encoding="UTF-8"?><svg xmlns="http://www.w3.org/2000/svg" xmlns:xlink="http://www.w3.org/1999/xlink" viewBox="0 0 512 512"><defs><style>.af{fill:#fff;}.ag{fill:#a7a9ac;}.ah{fill:url(#v);}.ai{fill:#d1d3d4;}.aj{fill:url(#w);}.ak{fill:#e6e7e8;}</style><linearGradient id="v" x1="6271.2686" y1="4590.6606" x2="6271.9352" y2="4590.6606" gradientTransform="translate(-3693390.8639 2704079.0137) scale(588.9603 -588.9603)" gradientUnits="userSpaceOnUse"><stop offset="0" stop-color="#df4097"/><stop offset=".1853" stop-color="#d93d94"/><stop offset=".4187" stop-color="#c9358d"/><stop offset=".6779" stop-color="#b02882"/><stop offset=".9538" stop-color="#8c1672"/><stop offset="1" stop-color="#86136f"/></linearGradient><linearGradient id="w" x1="6271.2686" y1="4590.6626" x2="6271.9352" y2="4590.6626" gradientTransform="translate(-3693390.8639 2704079.0137) scale(588.9603 -588.9603)" gradientUnits="userSpaceOnUse"><stop offset="0" stop-color="#912288"/><stop offset=".2627" stop-color="#8b2185"/><stop offset=".59" stop-color="#7c1e7c"/><stop offset=".9502" stop-color="#63196f"/><stop offset="1" stop-color="#5f196d"/></linearGradient></defs><g id="a"/><g id="b"/><g id="c"/><g id="d"/><g id="e"><g id="f"/><g id="g"/><g id="h"/><g id="i"/><g id="j"/></g><g id="k"/><g id="l"><g id="m"/><g id="n"/><g id="o"/></g><g id="p"/><g id="q"/><g id="r"/><g id="s"><g id="t"/><g id="u"><g><path class="ai" d="M346.1742,415.7773H149.3264c-27.6518,0-50.068-22.4162-50.068-50.068V50.068C99.2584,22.4162,121.6746,0,149.3264,0h123.5802l123.3356,123.3356v242.3737c0,27.6518-22.4162,50.068-50.068,50.068Z"/><path class="ag" d="M149.3264,59.3967c3.6789-2.9577,7.5806-5.4973,11.5856-7.9096,1.2873-.7408,2.5746-1.4954,3.8619-2.2002,.6436-.3169,1.2873-.1062,1.9309,.0344,3.4288,.2034,9.9932,.0118,13.5166,.0757,22.2797,.0071,55.0422-.0053,77.2376-.0001,5.314,3.0405,10.5233,6.1874,15.4475,10-4.9216,3.8099-10.1244,6.9633-15.4474,10-22.1613,.0042-54.9888-.003-77.2377,0-3.5196,.0605-10.0607-.1249-13.5165,.0754-.6436,.1407-1.2873,.3514-1.9309,.0345-1.2873-.7048-2.5746-1.4595-3.8619-2.2002-4.0053-2.4127-7.9055-4.9517-11.5856-7.9097h0Z"/><path class="ag" d="M149.3264,118.7935c5.2889-3.0982,10.5107-5.5038,15.988-7.9097,1.7764-.7408,3.5529-1.4954,5.3293-2.2002,.8882-.3169,1.7764-.1062,2.6646,.0344,4.738,.2036,13.7946,.0116,18.6527,.0756,30.749,.0071,75.9547-.0053,106.5865-.0001,7.1979,2.9979,14.4531,6.1283,21.3173,10-6.8601,3.8689-14.1081,7.0059-21.3172,10-30.5842,.0042-75.8821-.003-106.5867,0-4.8448,.0603-13.8791-.1248-18.6526,.0754-.8882,.1407-1.7764,.3514-2.6646,.0345-1.7765-.7048-3.5529-1.4595-5.3293-2.2002-5.4769-2.406-10.6989-4.8114-15.988-7.9097h0Z"/><path class="ag" d="M149.3264,178.1903c6.42-3.1048,12.7825-5.5219,19.3683-7.9097,2.152-.7408,4.3041-1.4954,6.4561-2.2002,1.076-.3169,2.152-.1062,3.2281,.0344,5.7459,.2036,16.7104,.0116,22.5964,.0756,37.2504,.0071,92.014-.0054,129.1224-.0001,8.6493,2.974,17.4713,6.1109,25.8245,10-8.3486,3.8864-17.1614,7.0298-25.8244,10-37.0507,.0042-91.9261-.003-129.1226,0-5.8698,.0603-16.8074-.1248-22.5963,.0754-1.0761,.1407-2.1521,.3514-3.2281,.0345-2.152-.7048-4.3041-1.4595-6.4561-2.2002-6.5856-2.3879-12.9481-4.8047-19.3683-7.9097h0Z"/><path class="ag" d="M149.3264,237.587c6.42-3.1049,12.7825-5.5219,19.3683-7.9097,2.152-.7408,4.3041-1.4954,6.4561-2.2002,1.076-.3169,2.152-.1062,3.2281,.0344,5.7459,.2037,16.7104,.0116,22.5964,.0757,37.2504,.0071,92.014-.0054,129.1224-.0001,8.6493,2.974,17.4713,6.1109,25.8245,10-8.3486,3.8863-17.1614,7.0298-25.8244,10-37.0507,.0042-91.9261-.003-129.1226,0-5.8698,.0603-16.8074-.1248-22.5963,.0754-1.0761,.1407-2.1521,.3514-3.2281,.0345-2.152-.7048-4.3041-1.4595-6.4561-2.2002-6.5856-2.3879-12.9481-4.8047-19.3683-7.9096h0Z"/><path class="ag" d="M149.3264,296.9838c6.42-3.1049,12.7825-5.5219,19.3683-7.9097,2.152-.7408,4.3041-1.4954,6.4561-2.2002,1.076-.3169,2.152-.1062,3.2281,.0344,5.7459,.2037,16.7104,.0116,22.5964,.0756,37.2504,.0071,92.014-.0054,129.1224-.0001,8.6493,2.974,17.4713,6.1109,25.8245,10-8.3486,3.8863-17.1614,7.0298-25.8244,10-37.0507,.0042-91.9261-.003-129.1226,0-5.8698,.0603-16.8074-.1248-22.5963,.0754-1.0761,.1407-2.1521,.3514-3.2281,.0345-2.152-.7048-4.3041-1.4595-6.4561-2.2002-6.5856-2.3879-12.9481-4.8047-19.3683-7.9097h0Z"/><path class="ag" d="M149.3264,356.3805c6.42-3.1048,12.7825-5.5219,19.3683-7.9097,2.152-.7408,4.3041-1.4954,6.4561-2.2002,1.076-.3169,2.152-.1062,3.2281,.0344,5.7459,.2036,16.7104,.0116,22.5964,.0756,37.2504,.0071,92.014-.0054,129.1224-.0001,8.6493,2.974,17.4713,6.1109,25.8245,10-8.3486,3.8863-17.1614,7.0298-25.8244,10-37.0507,.0042-91.9261-.003-129.1226,0-5.8698,.0603-16.8074-.1248-22.5963,.0754-1.0761,.1407-2.1521,.3514-3.2281,.0345-2.152-.7048-4.3041-1.4595-6.4561-2.2002-6.5856-2.3879-12.9481-4.8047-19.3683-7.9097h0Z"/></g><g><path class="ak" d="M296.9838,452.6032H100.1359c-27.6518,0-50.068-22.4162-50.068-50.068V86.894c0-27.6518,22.4162-50.068,50.068-50.068h123.5802l123.3356,123.3356v242.3737c0,27.6518-22.4162,50.068-50.068,50.068Z"/><path class="ag" d="M100.1359,96.2227c3.6789-2.9577,7.5806-5.4973,11.5856-7.9096,1.2873-.7408,2.5746-1.4954,3.8619-2.2002,.6437-.3169,1.2873-.1062,1.931,.0344,3.4288,.2033,9.9931,.0118,13.5165,.0756,22.2797,.0071,55.0422-.0054,77.2376-.0001,5.314,3.0404,10.5234,6.1874,15.4475,10-4.9216,3.8098-10.1245,6.9633-15.4475,10-22.1613,.0042-54.9888-.003-77.2377,0-3.5195,.0605-10.0606-.1249-13.5165,.0754-.6437,.1407-1.2873,.3514-1.931,.0345-1.2873-.7048-2.5746-1.4595-3.8619-2.2002-4.0053-2.4127-7.9055-4.9517-11.5856-7.9097h0Z"/><path class="ag" d="M100.1359,155.6195c5.2889-3.0982,10.5108-5.5038,15.988-7.9097,1.7764-.7408,3.5529-1.4954,5.3293-2.2002,.8882-.3169,1.7764-.1062,2.6647,.0343,4.7379,.2037,13.7946,.0116,18.6527,.0757,30.7491,.0071,75.9548-.0053,106.5865-.0001,7.1979,2.9979,14.4531,6.1283,21.3173,10-6.8601,3.8689-14.108,7.0059-21.3172,10-30.5842,.0042-75.8821-.003-106.5867,0-4.8448,.0603-13.8791-.1248-18.6526,.0754-.8883,.1407-1.7765,.3514-2.6647,.0345-1.7764-.7048-3.5529-1.4595-5.3293-2.2002-5.4769-2.406-10.6989-4.8114-15.988-7.9097h0Z"/><path class="ag" d="M100.1359,215.0162c6.42-3.1048,12.7825-5.5219,19.3683-7.9097,2.152-.7408,4.3041-1.4954,6.4561-2.2002,1.076-.3169,2.152-.1062,3.2281,.0344,5.7459,.2036,16.7104,.0116,22.5965,.0756,37.2504,.0071,92.014-.0054,129.1223-.0001,8.6493,2.974,17.4713,6.1109,25.8245,10-8.3485,3.8864-17.1615,7.0298-25.8244,10-37.0507,.0042-91.926-.003-129.1225,0-5.8698,.0603-16.8074-.1248-22.5963,.0754-1.0761,.1407-2.1521,.3514-3.2281,.0345-2.152-.7048-4.3041-1.4595-6.4561-2.2002-6.5856-2.3879-12.9481-4.8047-19.3683-7.9097h0Z"/><path class="ag" d="M100.1359,274.413c6.42-3.1048,12.7825-5.5219,19.3683-7.9097,2.152-.7408,4.3041-1.4954,6.4561-2.2002,1.076-.3169,2.152-.1062,3.2281,.0344,5.7459,.2036,16.7104,.0116,22.5965,.0756,37.2504,.0071,92.014-.0054,129.1223-.0001,8.6493,2.974,17.4713,6.1109,25.8245,10-8.3485,3.8864-17.1615,7.0298-25.8244,10-37.0507,.0042-91.926-.003-129.1225,0-5.8698,.0603-16.8074-.1248-22.5963,.0754-1.0761,.1407-2.1521,.3514-3.2281,.0345-2.152-.7048-4.3041-1.4595-6.4561-2.2002-6.5856-2.3879-12.9481-4.8047-19.3683-7.9097h0Z"/><path class="ag" d="M100.1359,333.8097c6.42-3.1049,12.7825-5.5219,19.3683-7.9097,2.152-.7408,4.3041-1.4954,6.4561-2.2002,1.076-.3169,2.152-.1062,3.2281,.0344,5.7459,.2037,16.7104,.0116,22.5965,.0756,37.2504,.0071,92.014-.0054,129.1223-.0001,8.6493,2.974,17.4713,6.1109,25.8245,10-8.3485,3.8864-17.1615,7.0298-25.8244,10-37.0507,.0042-91.926-.003-129.1225,0-5.8698,.0603-16.8074-.1248-22.5963,.0754-1.0761,.1407-2.1521,.3514-3.2281,.0345-2.152-.7048-4.3041-1.4595-6.4561-2.2002-6.5856-2.3879-12.9481-4.8047-19.3683-7.9097h0Z"/><path class="ag" d="M100.1359,393.2065c6.42-3.1048,12.7825-5.5219,19.3683-7.9097,2.152-.7408,4.3041-1.4954,6.4561-2.2002,1.076-.3169,2.152-.1062,3.2281,.0344,5.7459,.2036,16.7104,.0116,22.5965,.0756,37.2504,.0071,92.014-.0054,129.1223-.0001,8.6493,2.974,17.4713,6.1109,25.8245,10-8.3485,3.8864-17.1615,7.0298-25.8244,10-37.0507,.0042-91.926-.003-129.1225,0-5.8698,.0603-16.8074-.1248-22.5963,.0754-1.0761,.1407-2.1521,.3514-3.2281,.0345-2.152-.7048-4.3041-1.4595-6.4561-2.2002-6.5856-2.3879-12.9481-4.8047-19.3683-7.9097h0Z"/></g><g><path class="af" d="M246.9158,512H50.068c-27.6518,0-50.068-22.4162-50.068-50.068V146.2907c0-27.6518,22.4162-50.068,50.068-50.068h123.5802l123.3356,123.3356v242.3737c0,27.6518-22.4162,50.068-50.068,50.068Z"/><path class="ag" d="M50.068,155.6195c3.6789-2.9577,7.5806-5.4973,11.5856-7.9096,1.2873-.7408,2.5746-1.4954,3.8619-2.2002,.6437-.3169,1.2873-.1062,1.931,.0343,3.4288,.2034,9.9932,.0118,13.5166,.0757,22.2797,.0071,55.0422-.0053,77.2376-.0001,5.314,3.0405,10.5233,6.1874,15.4475,10-4.9215,3.8098-10.1245,6.9633-15.4474,10-22.1613,.0042-54.9888-.003-77.2377,0-3.5195,.0605-10.0607-.1249-13.5165,.0754-.6437,.1407-1.2873,.3514-1.931,.0345-1.2873-.7048-2.5746-1.4595-3.8619-2.2002-4.0053-2.4127-7.9055-4.9517-11.5856-7.9097h0Z"/><path class="ag" d="M50.068,215.0162c5.2889-3.0981,10.5107-5.5038,15.988-7.9097,1.7765-.7408,3.5529-1.4954,5.3293-2.2002,.8882-.3169,1.7764-.1062,2.6647,.0344,4.738,.2036,13.7945,.0116,18.6527,.0756,30.7491,.0071,75.9548-.0054,106.5865-.0001,7.1979,2.9979,14.4531,6.1283,21.3173,10-6.8602,3.8689-14.108,7.0059-21.3172,10-30.5842,.0042-75.8821-.003-106.5867,0-4.8448,.0603-13.879-.1248-18.6526,.0754-.8883,.1407-1.7764,.3514-2.6647,.0345-1.7764-.7048-3.5529-1.4595-5.3293-2.2002-5.4769-2.406-10.6988-4.8114-15.988-7.9097h0Z"/><path class="ag" d="M50.068,274.413c6.4201-3.1049,12.7824-5.5219,19.3684-7.9097,2.152-.7408,4.3041-1.4954,6.4561-2.2002,1.076-.3169,2.152-.1062,3.228,.0344,5.7459,.2036,16.7104,.0116,22.5965,.0756,37.2504,.0071,92.014-.0054,129.1224-.0001,8.6493,2.974,17.4713,6.1109,25.8244,10-8.3485,3.8864-17.1614,7.0298-25.8243,10-37.0507,.0042-91.9261-.003-129.1226,0-5.8698,.0603-16.8074-.1248-22.5963,.0754-1.076,.1407-2.1521,.3514-3.228,.0345-2.152-.7048-4.3041-1.4595-6.4561-2.2002-6.5857-2.3879-12.9481-4.8047-19.3684-7.9097h0Z"/><path class="ag" d="M50.068,333.8097c6.4201-3.1049,12.7824-5.5219,19.3684-7.9097,2.152-.7408,4.3041-1.4954,6.4561-2.2002,1.076-.3169,2.152-.1062,3.228,.0344,5.7459,.2037,16.7104,.0116,22.5965,.0756,37.2504,.0071,92.014-.0054,129.1224-.0001,8.6493,2.974,17.4713,6.1109,25.8244,10-8.3485,3.8864-17.1614,7.0298-25.8243,10-37.0507,.0042-91.9261-.003-129.1226,0-5.8698,.0603-16.8074-.1248-22.5963,.0754-1.076,.1407-2.1521,.3514-3.228,.0345-2.152-.7048-4.3041-1.4595-6.4561-2.2002-6.5857-2.3879-12.9481-4.8047-19.3684-7.9097h0Z"/><path class="ag" d="M50.068,393.2065c6.4201-3.1049,12.7824-5.5219,19.3684-7.9097,2.152-.7408,4.3041-1.4954,6.4561-2.2002,1.076-.3169,2.152-.1062,3.228,.0344,5.7459,.2036,16.7104,.0116,22.5965,.0756,37.2504,.0071,92.014-.0054,129.1224-.0001,8.6493,2.974,17.4713,6.1109,25.8244,10-8.3485,3.8864-17.1614,7.0298-25.8243,10-37.0507,.0042-91.9261-.003-129.1226,0-5.8698,.0603-16.8074-.1248-22.5963,.0754-1.076,.1407-2.1521,.3514-3.228,.0345-2.152-.7048-4.3041-1.4595-6.4561-2.2002-6.5857-2.3879-12.9481-4.8047-19.3684-7.9097h0Z"/><path class="ag" d="M50.068,452.6032c6.4201-3.1049,12.7824-5.5219,19.3684-7.9097,2.152-.7408,4.3041-1.4954,6.4561-2.2002,1.076-.3169,2.152-.1062,3.228,.0344,5.7459,.2036,16.7104,.0116,22.5965,.0756,37.2504,.0071,92.014-.0054,129.1224-.0001,8.6493,2.974,17.4713,6.1109,25.8244,10-8.3485,3.8864-17.1614,7.0298-25.8243,10-37.0507,.0042-91.9261-.003-129.1226,0-5.8698,.0603-16.8074-.1248-22.5963,.0754-1.076,.1407-2.1521,.3514-3.228,.0345-2.152-.7048-4.3041-1.4595-6.4561-2.2002-6.5857-2.3879-12.9481-4.8047-19.3684-7.9097h0Z"/></g><g><path class="ah" d="M318.49,212.6616c-43.3359,9.0342-76.1403,43.2135-78.9118,84.7793h51.6699v4.6458c0,5.2637-9.8066,30.9674-42.3226,30.9674h-9.2135l-.0332,96.8167c-.0029,6.9697,5.7135,11.7386,11.7695,11.7386,2.5065,0,5.07-.8161,7.3122-2.6309l32.7477-26.5146,36.97,64.0345c-14.9456,9.6019-25.7474,21.8301-30.5657,35.5024h136.7695l-66.8447-115.7775c-7.1419-12.3711-2.7201-28.1637,9.7695-35.097,30.6159-16.999,49.0605-38.9307,49.0605-62.8734,0-36.8437-139.0328-23.6077-108.1774-85.5914"/><path class="aj" d="M341.3331,210.3162c-.9229,0-1.8434,.014-2.7611,.0361-.2731,.0062-.5446,.0192-.8174,.027-.654,.0205-1.3066,.0436-1.9567,.0758-.2962,.014-.5924,.0335-.8883,.0488-.64,.0374-1.2796,.0771-1.917,.125-.2728,.0192-.5443,.041-.8161,.0632-.6885,.0566-1.376,.1182-2.0609,.1865-.2087,.0205-.417,.0413-.6257,.0632-.8278,.0876-1.6517,.1826-2.4743,.2884-.0605,.0075-.1221,.014-.1839,.0231-2.8193,.3656-5.6012,.8366-8.3405,1.4082h-.0013c-30.8555,61.9837,108.1774,48.7477,108.1774,85.5914,0,23.9427-18.4447,45.8743-49.0605,62.8734-12.4896,6.9333-16.9115,22.7259-9.7695,35.097l66.8447,115.7775h77.318v-17.658c-7.487-9.1732-17.9206-17.2139-30.5104-23.5999-38.3307-19.4476-70.6445-48.8314-93.7968-84.89h0c33.0013-15.3678,55.5921-46.6328,55.5921-82.7028,0-51.2708-45.6452-92.834-101.9518-92.834"/></g></g><g id="x"/></g><g id="y"/><g id="a`"/><g id="aa"/><g id="ab"><g id="ac"/></g><g id="ad"/><g id="ae"/></svg>