<?xml version="1.0" encoding="UTF-8"?><svg xmlns="http://www.w3.org/2000/svg" xmlns:xlink="http://www.w3.org/1999/xlink" viewBox="0 0 512 512"><defs><style>.af{fill:url(#t);}.ag{fill:url(#s);}</style><linearGradient id="s" x1="7816.7135" y1="3793.3088" x2="7817.7135" y2="3793.3088" gradientTransform="translate(-4603783.9285 2234395.6808) scale(588.9603 -588.9603)" gradientUnits="userSpaceOnUse"><stop offset="0" stop-color="#f78e1f"/><stop offset=".1965" stop-color="#f1891f"/><stop offset=".4428" stop-color="#e27b20"/><stop offset=".7158" stop-color="#c86521"/><stop offset="1" stop-color="#a64724"/></linearGradient><linearGradient id="t" x1="7816.7135" y1="3793.3118" x2="7817.7135" y2="3793.3118" gradientTransform="translate(-4603783.9285 2234395.6808) scale(588.9603 -588.9603)" gradientUnits="userSpaceOnUse"><stop offset="0" stop-color="#d55e1d"/><stop offset=".2282" stop-color="#cf5a1c"/><stop offset=".5158" stop-color="#bf4e1c"/><stop offset=".8338" stop-color="#a63c1c"/><stop offset="1" stop-color="#96311c"/></linearGradient></defs><g id="a"/><g id="b"/><g id="c"/><g id="d"/><g id="e"><g id="f"/><g id="g"/><g id="h"/><g id="i"/><g id="j"/></g><g id="k"/><g id="l"><g id="m"/><g id="n"/><g id="o"/></g><g id="p"/><g id="q"/><g id="r"><g><path class="ag" d="M221.735,62.9918c-65.0039,13.5515-114.2104,64.8203-118.3677,127.1689h77.5049v6.9688c0,7.8958-14.71,46.4512-63.4839,46.4512h-13.8203l-.0498,145.2271c-.0044,10.4531,8.5698,17.6067,17.6538,17.6067,3.7598,0,7.6055-1.2244,10.9688-3.947l49.1216-39.772,55.4551,96.0515c-22.4185,14.4031-38.6211,32.7451-45.8486,53.2539h205.1543l-100.2671-173.6663c-10.7129-18.5547-4.0801-42.2456,14.6543-52.6458,45.9238-25.498,73.5908-58.3958,73.5908-94.3096,0-55.2659-208.5493-35.4119-162.2661-128.3875"/><path class="af" d="M255.9996,59.4737c-1.3843,0-2.7651,.0212-4.1416,.054-.4097,.0098-.8169,.0291-1.2261,.0405-.981,.031-1.96,.0676-2.9351,.114-.4443,.0232-.8887,.0483-1.3325,.0752-.96,.0542-1.9194,.114-2.8755,.1855-.4092,.0288-.8164,.0618-1.2241,.0945-1.0327,.085-2.064,.1777-3.0913,.28-.313,.0327-.6255,.0618-.9385,.0947-1.2417,.1311-2.4775,.2742-3.7114,.4324-.0908,.0117-.1831,.0212-.2759,.0349-4.229,.5483-8.4019,1.2551-12.5107,2.1123h-.002c-46.2832,92.9756,162.2661,73.1216,162.2661,128.3875,0,35.9138-27.667,68.8115-73.5908,94.3096-18.7344,10.4001-25.3672,34.0911-14.6543,52.6458l100.2671,173.6663h115.9771v-26.4851c-11.2305-13.762-26.8809-25.8225-45.7656-35.4041-57.4961-29.1689-105.9668-73.2449-140.6953-127.333h0c49.502-23.0518,83.3882-69.9487,83.3882-124.0542,0-76.906-68.4678-139.2507-152.9277-139.2507"/></g></g><g id="u"><g id="v"/><g id="w"/><g id="x"/></g><g id="y"/><g id="a`"/><g id="aa"/><g id="ab"><g id="ac"/></g><g id="ad"/><g id="ae"/></svg>